<?xml version="1.0" encoding="utf-8"?>
<!-- Generator: Adobe Illustrator 24.0.1, SVG Export Plug-In . SVG Version: 6.00 Build 0)  -->
<svg version="1.1" id="图层_1" xmlns="http://www.w3.org/2000/svg" xmlns:xlink="http://www.w3.org/1999/xlink" x="0px" y="0px"
	 viewBox="0 0 199 58" style="enable-background:new 0 0 199 58;" xml:space="preserve">
<style type="text/css">
	.st0{clip-path:url(#SVGID_2_);}
	.st1{fill-rule:evenodd;clip-rule:evenodd;fill:#0066FF;}
	.st2{fill-rule:evenodd;clip-rule:evenodd;fill:#494747;}
</style>
<g>
	<g>
		<defs>
			<rect id="SVGID_1_" width="199" height="58"/>
		</defs>
		<clipPath id="SVGID_2_">
			<use xlink:href="#SVGID_1_"  style="overflow:visible;"/>
		</clipPath>
		<g class="st0">
			<path class="st1" d="M56.8,31.6c-1.3,14.4-13.3,25.6-28,25.6C13.2,57.2,0.6,44.6,0.6,29S13.2,0.8,28.8,0.8c2.7,0,5.4,0.4,7.9,1.1
				v0.7c2.1,0,3.6,1.8,3.6,4c0,2.6-2.1,4.7-4.7,4.7c-0.6,0-1.3-0.1-1.8-0.2l0,0c-0.8-0.4-3.2-0.6-4.8-0.6
				c-10.2,0-18.5,8.3-18.5,18.5S18.8,47.5,29,47.5c9.8,0,17.7-7.5,18.4-17.1h0.1c0.3-2.3,2.3-4,4.8-4s4.6,2.1,4.6,5.6
				c0-0.6,0-0.5,0-0.3L56.8,31.6z M48.7,20.6c-1.5,0-2.9-0.1-3.9-1.5l-4.3,4.3c0.4,0.2,0.6,1,0.6,1.8c0,2.3-1.9,4.2-4.2,4.2
				s-4.2-1.9-4.2-4.2c0-0.3,0-0.5,0.1-0.8l-7.7-2.3c-0.6,1-1.6,1.7-2.8,2.8v7.2c1.6,0.5,3.4,1.9,2.7,3.7l5.6,1.2
				c0.5-0.9,1.5-1.5,2.6-1.5c1.6,0,3,1.3,3,3c0,1.6-1.3,3-3,3c-1.6,0-3-1.3-3-3l-5.5-1.2c-0.6,1.5-2,2.5-3.7,2.5
				c-2.1,0-3.9-1.8-3.9-3.9c0-2.1,1.6-3.8,3.6-3.8v-7.6c-1-0.9-3.1-1.8-3.1-4.3c0-2,1.8-4,4-4s4,2,4,4c0,0.2,0,0.4,0,0.5l7.7,2.8
				c0.7-1.6,2-1.8,3.5-1.8c0.9,0,1.8-0.3,2.5,0.2l4.4-4c-0.6-0.7-0.9-2-0.9-3.1c0-3.2,2.6-5.8,5.8-5.8s5.8,2.6,5.8,5.8
				C54.5,18.2,51.9,20.6,48.7,20.6z"/>
			<path class="st1" d="M146.6,9.6h-1.4H146.6l3.6,4.3h-2.5l-3.6-4.3l0,0l0,0l3.6-4.3h2.5L146.6,9.6z M144,9.7L144,9.7L144,9.7
				L144,9.7z M141.4,1.6h2.3v10.2V14h-2.3V1.6z M136.6,8.8c0-1.3,0.1-1.8-1.2-1.8c-0.7,0-0.9,0.3-1.8,1v5.9h-2V5.3h1.6l0.9,1.1h-0.7
				c0.8-0.7,1.7-1.4,3.1-1.4c1.7,0,2.5,1.3,2.5,3.5v5.4h-2.3V8.8H136.6z M127.6,3.9c-0.8,0-1-0.5-1-1.2s0.2-1.2,1-1.2S129,2,129,2.7
				C129,3.3,128.4,3.9,127.6,3.9z M117.5,2.5h2.3V12h4.7v1.9h-7.1L117.5,2.5L117.5,2.5z M110.9,14c-2.4,0-4.4-1.9-4.4-4.3
				s2-4.3,4.4-4.3s4.4,1.9,4.4,4.3C115.3,12,113.3,14,110.9,14z M110.9,7.2c-1.4,0-2.5,1-2.5,2.4s1.1,2.6,2.5,2.6s2.5-1.2,2.5-2.6
				S112.3,7.2,110.9,7.2z M104.4,12.3c0.3,0,0.6-0.1,1.4,0.3l-0.2,1.2c-0.5,0.2-1.1,0.6-1.9,0.6c-2.1,0-2.9-1.6-2.9-3.5V7.1h-1.2
				V5.4l1.4-0.1l0.7-2.3h1.5v2.3h2.2v1.8h-2.2v3.8C103.2,11.9,103.6,12.3,104.4,12.3z M95.8,8.8c0-1.3-0.4-1.8-1.2-1.8
				c-0.7,0-1.2,0.3-1.8,1v5.9h-2.3V5.3h1.9l0.2,1.1h0.1C94.3,5.7,94.4,5,95.6,5c1.9,0,2.7,1.3,2.7,3.5v5.4H96V8.8H95.8z M83.1,14
				c-3.2,0-5.7-2.6-5.7-5.2c0-3.8,2.5-6.4,5.7-6.4S89,5,89,8.8C88.9,11.4,86.3,14,83.1,14z M83.1,4.4c-2.2,0-3.2,1.5-3.2,4.3
				c0,1.6,0.9,3.2,3.2,3.2c2.2,0,3.8-1.5,3.8-3.2C86.9,5.9,85.3,4.4,83.1,4.4z M75.9,10.5c0,2.3-2,3.4-4.5,3.4h-4.2V2.5h3.9
				c2.4,0,4.8,1.2,4.8,2.8c0,1.1-1.2,2.1-2.2,2.5v0.1C74.9,8.5,75.9,9,75.9,10.5z M70.9,4.2h-1.4v3.2h1.4c1.5,0,2.1-0.9,2.1-1.8
				C73,4.6,73.1,4.2,70.9,4.2z M71.1,8.8h-1.6v3.8h1.6c1.6,0,2.5-1,2.5-2.2C73.6,9.3,72.7,8.8,71.1,8.8z M128.7,13.9h-2.3V5.3h2.3
				V13.9z"/>
			<path class="st2" d="M185.7,50l-1.3,4.8c-4.8-2.7-7-5.7-9.6-9.4c-1.9,3.5-5,6.9-9.7,9.4l-1.3-4.8c5.2-3.2,7.6-6.3,8.2-11h-6.9
				l-0.4-4.2h7.5v-4.6h-6.4l-0.4-4.2h10l2.7-7.6h4.9l-2.7,7.6h3.9v4.2h-7.1v4.6h8.1V39h-7.9C178.1,44.4,180.8,47.3,185.7,50z
				 M166.3,18.3h4.9l2.3,7h-4.9L166.3,18.3z M163,43.6l1.9-0.3v5.1l-1.9-0.6v6.8h-4.5v-6.1l-10.4,1.3l-0.6-4l2.6-0.4V23.2h-1.8
				l0.2-4.1h16.1v4.1H163V43.6z M158.5,23.2h-3.4v4.4h3.4V23.2z M158.5,31.5h-3.4v4.9h3.4V31.5z M158.5,40h-3.4v4.8l3.4-0.5V40z
				 M139.5,35.5h-8.8c-2.7,0-2.9-1.1-2.9-2.8v-9.8c0-1.9,0.2-2.8,2.9-2.8h8.8c1.8,0,2.9,1,2.9,2.8v9.8
				C142.3,34.5,141.3,35.5,139.5,35.5z M137.7,24.9c0-0.6,0.4-0.8-0.6-0.8h-4.8c-0.4,0-0.6,0.3-0.6,1.2v5.5c0,0.3,0.2,0.6,0.6,0.6
				h4.8c0.6,0,0.6-0.3,0.6-0.6V24.9z M126.2,36.3h-5.4l-3.2-4c-1.2,2.6-3.1,3.7-5.4,5.1c0.3-0.1,0.7-0.1,1.1-0.1h23.4
				c2.2,0,3.3,1.2,3.3,3.3v10.7c0,1.4-1.1,2.5-3.3,2.5h-23.4c-2.2,0-3.3-1.1-3.3-2.5V40.5c0-1.1,0.3-1.9,1.3-1.7
				c-1.4-0.3-1.6,0.4-3.5,0.5l-1.2-4.4c2.7-1,4.9-2.5,6.2-4.4h-5.5l0.2-3.6h7.6c-0.2-0.7,0.2-1.1,0.2-1.5v-1.5h-3.6
				c-0.3,0.7-0.7,1.4-1.2,2h-4.2c1.6-2.2,2.8-5.3,4-7.9h3.5c-0.1,0.6,0.2,1.3-0.5,2h11.3v3.9h-5.3v1.5c0,0.4,0,0.8,0,1.5h6.1v3.6
				h-7.1c-0.1,0.3-0.2,0.5-0.4,1.1h4L126.2,36.3z M114.9,49.1c0,0.5,0.2,0.6,0.6,0.6h19c0.4,0,0.7-0.1,0.7-0.6v-1.6h-20.3
				L114.9,49.1L114.9,49.1z M114.9,43.5h20.3v-1.6c0-0.3-0.3-0.6-0.7-0.6h-19c-0.4,0-0.6,0.3-0.6,0.6
				C114.9,41.9,114.9,43.5,114.9,43.5z M96.9,50.3c0,2.5-1.3,4-4,4.2c-1.8,0.1-4.7,0-7-0.4l-1.1-3.9c2,0.4,4.4,0.6,6,0.4
				c1.7-0.1,1.2-0.6,1.2-1.5v-2.8H74.4l-0.3-3.9h18v-2.5h3.3v-1.4h-4.8V41h-4.5v-2.4h-4.6v2.8h-4.7V29.7c0-2.4,1.1-3.5,3.3-3.5h6
				v-0.9H75.8L75.5,21h10.6v-3.1h4.5V21h3.8l-0.6-2.2h4.3l0.6,2.2h2.5v4.3H90.6v0.9h6.2c2.2,0,3.3,1.1,3.3,3.5V41h-3.2v1.5h4.8v3.9
				h-4.8V50.3z M86.1,29.2h-4c-0.4,0-0.6,0.2-0.6,0.6v1.1h4.6V29.2z M86.1,33.9h-4.6v1.7h4.6V33.9z M95.4,29.8
				c0-0.4-0.2-0.6-0.6-0.6h-4.2v1.7h4.8C95.4,30.9,95.4,29.8,95.4,29.8z M95.4,33.9h-4.8v1.7h4.8V33.9z M75.8,31.8h-3.4v22.8h-4.8
				V31.8h-3.8l-0.4-4.1h4.2v-9.8h4.8v9.8h3.4C75.8,27.7,75.8,31.8,75.8,31.8z M84.2,52.2h-4.8l-2.5-4.7h4.8L84.2,52.2z"/>
		</g>
	</g>
</g>
</svg>
