<svg xmlns="http://www.w3.org/2000/svg" width="320" height="180" viewBox="0 0 320 180">
  <!-- 圆环各扇区(白描边分隔) -->
  <g stroke="#fff" stroke-width="3" stroke-linejoin="round">
    <!-- 高亮扇区(当前轮播项) -->
    <path d="M160 26 A64 64 0 0 1 211.8 127.6 L192.4 113.5 A40 40 0 0 0 160 50 Z" fill="#1C5CE6"/>
    <path d="M211.8 127.6 A64 64 0 0 1 113.3 133.8 L130.8 117.4 A40 40 0 0 0 192.4 113.5 Z" fill="#6AA1FF"/>
    <path d="M113.3 133.8 A64 64 0 0 1 108.2 52.4 L127.6 66.5 A40 40 0 0 0 130.8 117.4 Z" fill="#A9C9FF"/>
    <path d="M108.2 52.4 A64 64 0 0 1 160 26 L160 50 A40 40 0 0 0 127.6 66.5 Z" fill="#C7DBFF"/>
  </g>
  <!-- 中心当前项占比 -->
  <text x="160" y="96" font-family="Arial" font-size="17" font-weight="bold" fill="#1C5CE6" text-anchor="middle">35%</text>
</svg>
