<svg xmlns="http://www.w3.org/2000/svg" width="320" height="180" viewBox="0 0 320 180">
  <path d="M30 96 C90 70 150 120 220 84 C260 66 290 78 300 74 L300 96 C290 92 260 84 220 100 C150 132 90 88 30 110 Z" fill="#4080FF" fill-opacity="0.85"/>
  <path d="M30 116 C90 100 150 138 220 110 C260 96 290 104 300 100 L300 118 C290 116 260 110 220 124 C150 148 90 118 30 128 Z" fill="#6AA1FF" fill-opacity="0.85"/>
  <path d="M30 76 C90 54 150 92 220 62 C260 48 290 58 300 54 L300 72 C290 68 260 60 220 82 C150 110 90 68 30 90 Z" fill="#A9C9FF" fill-opacity="0.85"/>
</svg>
