<?xml version="1.0" encoding="utf-8"?>
<!-- Generator: Adobe Illustrator 25.0.0, SVG Export Plug-In . SVG Version: 6.00 Build 0)  -->
<svg version="1.1" id="图层_1" xmlns="http://www.w3.org/2000/svg" xmlns:xlink="http://www.w3.org/1999/xlink" x="0px" y="0px"
	 viewBox="0 0 24 24" style="enable-background:new 0 0 24 24;" xml:space="preserve">
<g>
	<path d="M16,23.2c-0.4,0-0.8-0.3-0.8-0.8v-6c0-0.4,0.3-0.8,0.8-0.8h6c0.4,0,0.8,0.3,0.8,0.8s-0.3,0.8-0.8,0.8h-5.2v5.2
		C16.8,22.9,16.4,23.2,16,23.2z M8,23.2c-0.4,0-0.8-0.3-0.8-0.8v-5.2H2c-0.4,0-0.8-0.3-0.8-0.8s0.3-0.8,0.8-0.8h6
		c0.4,0,0.8,0.3,0.8,0.8v6C8.8,22.9,8.4,23.2,8,23.2z M22,8.2h-6c-0.4,0-0.8-0.3-0.8-0.8v-6c0-0.4,0.3-0.8,0.8-0.8s0.8,0.3,0.8,0.8
		v5.2H22c0.4,0,0.8,0.3,0.8,0.8S22.4,8.2,22,8.2z M8,8.2H2c-0.4,0-0.8-0.3-0.8-0.8S1.6,6.8,2,6.8h5.2V1.5c0-0.4,0.3-0.8,0.8-0.8
		s0.8,0.3,0.8,0.8v6C8.8,7.9,8.4,8.2,8,8.2z"/>
</g>
</svg>
