<?xml version="1.0" encoding="utf-8"?>
<!-- Generator: Adobe Illustrator 25.0.0, SVG Export Plug-In . SVG Version: 6.00 Build 0)  -->
<svg version="1.1" id="图层_1" xmlns="http://www.w3.org/2000/svg" xmlns:xlink="http://www.w3.org/1999/xlink" x="0px" y="0px"
	 viewBox="0 0 24 24" style="enable-background:new 0 0 24 24;" xml:space="preserve">
<g>
	<path d="M21.4,22.8h-4.5c-0.4,0-0.7-0.3-0.7-0.7s0.3-0.7,0.7-0.7h4.5l0-4.5c0-0.4,0.3-0.7,0.7-0.7s0.7,0.3,0.7,0.7v4.5
		C22.8,22.1,22.1,22.8,21.4,22.8z"/>
</g>
<g>
	<path d="M22.1,7.8c-0.4,0-0.7-0.3-0.7-0.7V2.6l0,0c0,0,0,0-0.1,0l-4.5,0c-0.4,0-0.7-0.3-0.7-0.7s0.3-0.7,0.7-0.7h4.5
		c0.7,0,1.4,0.7,1.4,1.4v4.5C22.8,7.5,22.4,7.8,22.1,7.8z"/>
</g>
<g>
	<path d="M1.9,7.8c-0.4,0-0.7-0.3-0.7-0.7V2.6c0-0.7,0.7-1.4,1.4-1.4h4.5c0.4,0,0.7,0.3,0.7,0.7S7.5,2.6,7.1,2.6H2.6c0,0,0,0,0,0.1
		l0,4.5C2.6,7.5,2.3,7.8,1.9,7.8z"/>
</g>
<g>
	<path d="M7.1,22.8H2.6c-0.8,0-1.4-0.6-1.4-1.4v-4.5c0-0.4,0.3-0.7,0.7-0.7s0.7,0.3,0.7,0.7v4.5l4.5,0c0.4,0,0.7,0.3,0.7,0.7
		S7.5,22.8,7.1,22.8z"/>
</g>
</svg>
