<?xml version="1.0" encoding="utf-8"?>
<!-- Generator: Adobe Illustrator 24.0.1, SVG Export Plug-In . SVG Version: 6.00 Build 0)  -->
<svg version="1.1" id="图层_1" xmlns="http://www.w3.org/2000/svg" xmlns:xlink="http://www.w3.org/1999/xlink" x="0px" y="0px"
	 viewBox="0 0 540 83" style="enable-background:new 0 0 540 83;" xml:space="preserve">
<style type="text/css">
	.st0{clip-path:url(#SVGID_2_);}
	.st1{fill-rule:evenodd;clip-rule:evenodd;fill:#0066FF;}
	.st2{fill:#424040;}
</style>
<g>
	<defs>
		<rect id="SVGID_1_" width="540" height="83"/>
	</defs>
	<clipPath id="SVGID_2_">
		<use xlink:href="#SVGID_1_"  style="overflow:visible;"/>
	</clipPath>
	<g class="st0">
		<path class="st1" d="M80.9,45.8c-1.6,20.5-19.1,36.5-40.1,36.5c-22.2,0-40.3-18-40.3-40.3c0-22.2,18-40.3,40.3-40.3
			c3.9,0,7.7,0.6,11.3,1.6l0.5,0.2c2.4,0.7,4.6,3.4,4.6,7.2c0,3.1-3,6.1-6.8,6.1c-0.9,0-1.8-0.2-2.6-0.5l-0.1,0.2
			c-2.2-0.6-4.5-0.9-6.9-0.9c-14.6,0-26.4,11.8-26.4,26.4c0,14.6,11.8,26.4,26.4,26.4c13.9,0,25.3-10.8,26.3-24.5l0.2,0
			c0.5-3.3,3.3-5.8,6.7-5.8c3.7,0,6.8,3,6.8,6.8c0,0.3,0,0.5,0,0.7L80.9,45.8z M69.3,30.5c-2.2,0-4.1-1.2-5.6-2.6l-6.2,5.6
			c1.3,0.9,0.9,2,0.9,3.2c0,3.3-2.7,6-6,6c-3.3,0-6-2.7-6-6c0-0.4,0-0.7,0.1-1.1l-10.9-3.3c-0.8,1.4-2.3,2.4-3.9,2.7v11.6
			c2.2,0.7,3.8,2.8,3.9,5.2l8,1.8c0.7-1.3,2.1-2.1,3.7-2.1c2.3,0,4.2,1.9,4.2,4.2c0,2.6-1.9,4.2-4.2,4.2c-2.3,0-4.1-1.5-4.2-4.2
			L35.2,54c-0.8,2.6-2.9,3.6-5.2,3.6c-3.1,0-5.6-2.4-5.6-5.6c0-2.9,2.3-5.4,5.2-5.6V34.9c-2.5-0.6-3.7-2.8-3.7-5.5
			c0-3.1,1.8-5.7,5-5.7s5.7,2.5,5.7,5.7c0,0.3,0,0.5-0.1,0.8l11,3.3c1.1-1.7,2.9-2.8,5.1-2.8c1.3,0,2.8,0.4,3.8,1.2l6-5.7
			c-0.8-1.3-1.3-2.8-1.3-4.5c0-4.6,3.7-8.3,8.3-8.3c4.6,0,8.3,3.7,8.3,8.3S73.9,30.5,69.3,30.5z"/>
		<path class="st1" d="M252.3,15.9l-2.8,0L252.3,15.9l7,8.3h-4.9l-7-8.3l0,0l0,0l7-8.3h4.9L252.3,15.9z M247.3,15.9h0.1h0H247.3z
			 M242.4,0.3h4.4V20v4.2h-4.4V0.3z M233.2,14.3c0-2.6-0.7-3.5-2.4-3.5c-1.4,0-2.3,0.7-3.6,1.9v11.5h-4.4V7.4h3.7l0.3,2.2h0.1
			c1.5-1.4,3.9-2.4,5.5-2.4c4.3,0,5.3,2.3,5.3,6.5v10.4h-4.5V14.3z M215.8,4.8c-1.6,0-2-1-2-2.4c0-1.4,0.5-2.3,2-2.3
			c1.5,0,2.7,0.8,2.7,2.3C218.4,3.7,217.3,4.8,215.8,4.8z M196.3,2.7h4.5v17.7h9.1v3.7h-13.6V2.7z M183.6,24.2
			c-4.7,0-8.5-3.8-8.5-8.4c0-4.6,3.8-8.4,8.5-8.4s9.1,3.8,9.1,8.4C192.7,20.5,188.3,24.2,183.6,24.2z M183.6,11.1
			c-2.7,0-4.9,2-4.9,4.7s2.2,4.8,4.9,4.8c2.7,0,4.9-2.2,4.9-4.8S186.3,11.1,183.6,11.1z M171.5,22c0.1,0,0.8-1.1,1.3-1.2l0.7,3.2
			c-0.9,0.3-2.1,0.6-3.6,0.6c-4.1,0-5.6-2-5.6-6.3v-7.4h-2.4V7.7l2.6-0.2L165,3h3.7v4.5h4.2v3.5h-4.2v7.4
			C168.7,20.2,169.5,22,171.5,22z M154.5,14.3c0-2.6-0.7-3.5-2.4-3.5c-1.4,0-2.3,0.7-3.6,1.9v11.5h-3.6V7.4h2.8l0.8,2.2h-0.3
			c1.5-1.4,3.2-2.4,5.5-2.4c3.7,0,5.3,2.3,5.3,6.5v10.4h-4.5V14.3z M130,24.2c-6.2,0-11.3-5-11.3-10.8c0-6.6,5.1-11.6,11.3-11.6
			c6.2,0,11.3,5,11.3,11.6C141.3,19.2,136.2,24.2,130,24.2z M130,5.8c-4.3,0-7.3,3-7.3,7.7c0,3.9,3,6.8,7.3,6.8c4.3,0,7.3-3,7.3-6.8
			C137.3,8.8,134.3,5.8,130,5.8z M116.8,17.6c0,5.2-4.5,6.5-9.5,6.5h-8V2.7h7.5c4.6,0,8.2,0.6,8.2,4.8c0,2-1.2,4.1-3.1,4.8v0.1
			C114.3,13,116.8,14.7,116.8,17.6z M106.5,5.4h-2.7v6.1h2.6c2.9,0,4.1-1.6,4.1-3.3C110.5,6.2,109.2,5.4,106.5,5.4z M106.9,14.3
			h-3.1v6.4h3.1c3.2,0,4.8-1.1,4.8-3.4C111.7,15.2,110.5,14.3,106.9,14.3z M217.9,24.1h-4.4V7.4h4.4V24.1z"/>
		<path class="st2" d="M122.9,41.2H143v5.9h-20.1V41.2z M139.9,41.2h6c0,0,0,0.2,0,0.5c0,0.3,0,0.7-0.1,1.2c0,0.4,0,0.8,0,1.1
			c-0.1,5.2-0.2,9.6-0.4,13.3c-0.1,3.6-0.3,6.6-0.5,9c-0.2,2.4-0.5,4.2-0.8,5.6c-0.3,1.3-0.7,2.3-1.1,2.9c-0.6,0.9-1.2,1.5-1.9,1.8
			c-0.6,0.4-1.4,0.6-2.4,0.8c-0.8,0.1-1.8,0.2-3.1,0.2c-1.2,0-2.5,0-3.8-0.1c0-0.9-0.2-1.9-0.6-3c-0.3-1.1-0.8-2.1-1.3-3
			c1.2,0.1,2.4,0.2,3.4,0.2c1,0,1.8,0,2.4,0c0.4,0,0.8-0.1,1.1-0.2c0.3-0.1,0.5-0.4,0.8-0.7c0.3-0.4,0.6-1.2,0.8-2.4
			c0.2-1.2,0.4-2.9,0.6-5.1c0.2-2.2,0.3-5,0.4-8.4c0.1-3.4,0.3-7.6,0.4-12.5V41.2z M128.7,31h6.1c0,4-0.1,7.9-0.2,11.6
			c-0.1,3.7-0.3,7.3-0.6,10.7c-0.3,3.4-0.9,6.6-1.6,9.6c-0.8,3-1.8,5.8-3.1,8.3c-1.3,2.6-2.9,4.8-5,6.9c-0.3-0.5-0.7-1.1-1.3-1.7
			c-0.5-0.6-1.1-1.1-1.6-1.7c-0.6-0.5-1.1-1-1.6-1.3c1.8-1.8,3.3-3.8,4.5-6c1.2-2.3,2-4.7,2.6-7.4c0.6-2.7,1-5.6,1.3-8.6
			c0.3-3.1,0.4-6.3,0.5-9.7C128.7,38.2,128.7,34.7,128.7,31z M101.3,34.1h20.1v5.4h-20.1V34.1z M99.6,45.9h22.7v5.6H99.6V45.9z
			 M114.3,56.1l5-1.3c0.6,1.4,1.2,2.9,1.8,4.6c0.6,1.6,1.2,3.2,1.8,4.8c0.5,1.6,1,2.9,1.2,4.1l-5.3,1.7c-0.2-1.2-0.6-2.5-1.1-4.1
			c-0.5-1.6-1-3.3-1.6-5C115.5,59.2,114.9,57.6,114.3,56.1z M101.8,72.6l-0.6-5.2l2.6-1.9l16.6-3.9c0,0.8,0.1,1.7,0.3,2.7
			c0.2,1,0.4,1.8,0.6,2.5c-3.1,0.8-5.7,1.5-7.8,2.1c-2.1,0.5-3.9,1-5.3,1.4c-1.4,0.4-2.5,0.7-3.3,1c-0.8,0.3-1.5,0.5-1.9,0.7
			C102.5,72.2,102.1,72.4,101.8,72.6z M101.7,72.6c-0.1-0.4-0.2-0.9-0.5-1.6c-0.2-0.7-0.4-1.4-0.7-2c-0.3-0.7-0.5-1.3-0.8-1.8
			c0.5-0.2,1-0.5,1.3-1.1c0.4-0.6,0.8-1.3,1.2-2.3c0.2-0.5,0.5-1.2,0.8-2.3c0.4-1.1,0.8-2.3,1.2-3.7c0.4-1.4,0.8-3,1.2-4.6
			c0.4-1.6,0.7-3.3,1-4.9l6,1.7c-0.5,2.3-1.1,4.5-1.8,6.9c-0.8,2.3-1.6,4.5-2.5,6.7c-0.9,2.1-1.7,4-2.6,5.7v0.2c0,0-0.2,0.1-0.6,0.3
			c-0.4,0.2-0.9,0.5-1.4,0.8c-0.5,0.3-1,0.7-1.4,1.1C101.9,72,101.7,72.3,101.7,72.6z M150.7,36.7h46.5v5.6h-46.5V36.7z M170.9,29.6
			h6.3c-0.2,2.7-0.5,5.2-1,7.7c-0.4,2.5-1.1,4.8-2.1,7.1c-0.9,2.3-2.2,4.4-3.9,6.4c-1.7,1.9-3.9,3.7-6.6,5.3
			c-2.7,1.6-6.1,2.9-10.1,4.1c-0.3-0.8-0.8-1.7-1.4-2.7c-0.7-1-1.3-1.9-2-2.5c3.7-1,6.7-2.1,9.2-3.4c2.5-1.3,4.4-2.8,5.8-4.5
			c1.5-1.6,2.6-3.4,3.3-5.3c0.8-1.9,1.3-3.9,1.6-6C170.4,33.9,170.7,31.8,170.9,29.6z M178.3,36.9c1.5,4.4,3.9,8,7.1,11
			c3.3,2.9,7.6,4.9,12.8,6.1c-0.4,0.4-0.9,1-1.5,1.6c-0.5,0.7-1,1.4-1.4,2.1c-0.4,0.7-0.8,1.3-1.2,1.9c-3.8-1.1-7.1-2.6-9.8-4.6
			c-2.8-1.9-5.1-4.3-7-7.1c-1.9-2.8-3.5-6-4.8-9.7L178.3,36.9z M167.5,53.5l5.3-3.2c1,0.5,2,1.1,3.1,1.8c1.1,0.7,2.1,1.4,3.1,2
			c1,0.7,1.9,1.3,2.6,1.9l-5.7,3.5c-0.6-0.6-1.3-1.3-2.3-2c-1-0.8-2-1.5-3.1-2.1C169.5,54.7,168.5,54.1,167.5,53.5z M161.8,61.1h6.1
			v8.7c0,0.8,0.2,1.3,0.6,1.5c0.4,0.2,1.4,0.3,2.9,0.3c0.3,0,0.7,0,1.2,0c0.6,0,1.2,0,1.9,0s1.5,0,2.2,0c0.7,0,1.4,0,2,0
			c0.6,0,1.1,0,1.4,0c0.9,0,1.5-0.1,1.9-0.4c0.4-0.3,0.7-0.8,0.9-1.7c0.2-0.9,0.3-2.1,0.4-3.8c0.4,0.3,1,0.6,1.6,0.9
			c0.6,0.3,1.3,0.6,2,0.8c0.7,0.2,1.3,0.4,1.9,0.5c-0.2,2.5-0.6,4.3-1.2,5.7c-0.5,1.3-1.4,2.3-2.5,2.8c-1.1,0.5-2.6,0.8-4.6,0.8
			c-0.3,0-0.8,0-1.5,0c-0.6,0-1.4,0-2.3,0c-0.8,0-1.7,0-2.5,0s-1.6,0-2.3,0c-0.6,0-1.1,0-1.4,0c-2.4,0-4.2-0.2-5.5-0.7
			c-1.3-0.4-2.2-1.2-2.7-2.3c-0.5-1.1-0.7-2.5-0.7-4.3V61.1z M169,60.5l4.8-2.8c0.9,0.8,1.8,1.7,2.8,2.8c1,1,1.9,2,2.7,3
			c0.9,1,1.5,1.9,2,2.7l-5.1,3.2c-0.4-0.8-1.1-1.7-1.8-2.8c-0.8-1-1.7-2.1-2.6-3.1C170.8,62.3,169.9,61.3,169,60.5z M186.2,61.9
			l5.4-1.7c0.8,1.4,1.6,2.9,2.5,4.6c0.8,1.7,1.6,3.3,2.2,4.9c0.7,1.6,1.2,3,1.5,4.3l-5.8,2c-0.3-1.3-0.7-2.7-1.3-4.3
			c-0.6-1.6-1.3-3.3-2-5C187.8,65,187,63.4,186.2,61.9z M155,60.7l5.5,1.8c-0.3,1.5-0.8,3.1-1.2,4.8c-0.4,1.7-1,3.3-1.5,4.9
			c-0.5,1.6-1.2,3-1.9,4.2l-5.5-2.8c0.7-1.1,1.4-2.4,1.9-3.8c0.6-1.4,1.1-2.9,1.6-4.5C154.3,63.7,154.7,62.2,155,60.7z M202.5,40.1
			h45.2v6.2h-45.2V40.1z M213,63.2h23.8v6.2H213V63.2z M221.8,30.1h6.5v48.1h-6.5V30.1z M219.9,42.3l5.6,1.8
			c-1.5,3.7-3.2,7.2-5.3,10.5c-2.1,3.3-4.4,6.4-7,9.1c-2.6,2.7-5.3,5-8.3,6.9c-0.3-0.5-0.8-1.1-1.3-1.7c-0.5-0.6-1.1-1.3-1.6-1.9
			c-0.5-0.6-1-1.2-1.5-1.5c2.1-1.2,4.1-2.6,6.1-4.2c1.9-1.7,3.8-3.5,5.4-5.6c1.7-2,3.2-4.2,4.6-6.4C217.9,47,219,44.7,219.9,42.3z
			 M230.2,42.5c1.2,3,2.8,6,4.8,8.9c2,2.9,4.3,5.5,6.9,7.8c2.6,2.4,5.3,4.3,8.1,5.8c-0.5,0.4-1.1,0.9-1.7,1.6
			c-0.6,0.6-1.1,1.3-1.7,2c-0.5,0.7-1,1.3-1.4,1.9c-3-1.8-5.7-4.1-8.3-6.8c-2.6-2.7-4.9-5.7-6.9-9c-2-3.3-3.8-6.8-5.3-10.4
			L230.2,42.5z M262,30.3l5.8,1.8c-1,2.9-2.2,5.8-3.6,8.7c-1.4,2.9-2.9,5.7-4.5,8.3c-1.6,2.6-3.3,4.9-5,6.9
			c-0.2-0.5-0.5-1.2-0.9-1.9c-0.4-0.8-0.8-1.6-1.2-2.5c-0.4-0.8-0.9-1.5-1.2-2c1.5-1.6,2.8-3.4,4.1-5.4c1.3-2.1,2.5-4.3,3.6-6.7
			C260.2,35.1,261.2,32.7,262,30.3z M257.8,44.5l5.8-5.8v0.1v39.4h-5.8V44.5z M279.6,30.3h6v47.4h-6V30.3z M266.6,39.2h33.2v5.8
			h-33.2V39.2z M272.9,64.1h19.7v5.5h-19.7V64.1z M287.8,42.5c0.9,2.9,2,5.8,3.4,8.7c1.4,2.9,3,5.6,4.7,8.1c1.7,2.5,3.5,4.6,5.3,6.3
			c-0.7,0.5-1.5,1.2-2.5,2.1c-0.9,0.9-1.6,1.8-2.1,2.6c-1.8-2-3.6-4.5-5.3-7.4c-1.7-2.9-3.2-6-4.5-9.3c-1.3-3.3-2.5-6.7-3.4-10.1
			L287.8,42.5z M277.7,42l4.5,1.2c-1,3.5-2.1,7-3.5,10.4c-1.4,3.4-3,6.6-4.7,9.5c-1.7,2.9-3.6,5.4-5.6,7.5c-0.3-0.5-0.8-1-1.3-1.6
			c-0.5-0.6-1.1-1.2-1.6-1.7c-0.5-0.5-1-1-1.5-1.3c2-1.7,3.8-3.9,5.6-6.4c1.8-2.6,3.4-5.4,4.8-8.4C275.7,48.1,276.8,45,277.7,42z
			 M317,72.3h24.9v4.6H317V72.3z M324.3,40.8h5.9V47h-5.9V40.8z M305.4,44.4h44.5v10.2h-6V49h-32.7v5.6h-5.8V44.4z M316.8,51.1h25
			v11.5h-25v-4.3h18.9v-2.7h-18.9V51.1z M317,64.9h28.7v13.3h-6.1v-8.8H317V64.9z M313.4,51.1h5.8v27.1h-5.8V51.1z M310.5,33.7h16.2
			v4.9h-16.2V33.7z M331.2,33.7h19.9v4.9h-19.9V33.7z M310.8,29.7l5.7,1.6c-1,2.3-2.3,4.5-3.8,6.7c-1.5,2.1-3,4-4.5,5.5
			c-0.4-0.3-0.9-0.7-1.5-1.1c-0.6-0.4-1.2-0.8-1.8-1.2c-0.6-0.4-1.2-0.7-1.7-1c1.6-1.3,3-2.8,4.4-4.7S310,31.6,310.8,29.7z
			 M331.6,29.7l5.8,1.4c-0.9,2.2-2.1,4.3-3.6,6.3c-1.5,2-3,3.6-4.5,5c-0.4-0.3-1-0.6-1.6-1c-0.6-0.4-1.3-0.7-1.9-1.1
			c-0.7-0.4-1.3-0.7-1.8-0.9c1.6-1.2,3.1-2.6,4.5-4.3C329.8,33.4,330.8,31.5,331.6,29.7z M312.5,37.5l5.2-1.4c0.6,0.9,1.2,1.9,1.8,3
			c0.6,1.1,1.1,2,1.5,2.8l-5.5,1.6c-0.2-0.8-0.7-1.7-1.3-2.9C313.6,39.4,313,38.4,312.5,37.5z M335.3,37.6l5.4-1.4
			c0.8,0.9,1.5,1.8,2.3,2.9c0.8,1.1,1.4,2.1,1.8,2.9l-5.7,1.6c-0.3-0.8-0.8-1.8-1.6-2.9C336.7,39.5,336,38.5,335.3,37.6z
			 M379.3,46.6V51h15.5v-4.3H379.3z M379.3,37.5v4.3h15.5v-4.3H379.3z M373.7,32.3h26.9v23.9h-26.9V32.3z M373.4,60.6h27.7v5.5
			h-27.7V60.6z M369.8,71h33.1v5.6h-33.1V71z M354.8,33h17v5.7h-17V33z M355.3,47.8H371v5.6h-15.7V47.8z M354.2,67.2
			c1.5-0.4,3.2-0.9,5-1.4c1.9-0.5,3.9-1.1,5.9-1.8c2.1-0.7,4.1-1.3,6.1-2l1.1,5.8c-2.9,1-5.8,1.9-8.7,2.9c-2.9,1-5.6,1.9-8.1,2.7
			L354.2,67.2z M360.5,35.3h5.9v31.4l-5.9,1V35.3z M384.6,34.5h5.2v19.2h0.6v19.9H384V53.7h0.6V34.5z M416.8,64.3l6.4,2.4
			c-1.1,1.3-2.3,2.6-3.7,4c-1.4,1.3-2.8,2.6-4.2,3.7c-1.5,1.2-2.9,2.2-4.2,3.1c-0.4-0.4-1-0.9-1.6-1.4c-0.6-0.5-1.3-1-2-1.6
			c-0.7-0.5-1.3-0.9-1.8-1.2c1.4-0.7,2.8-1.6,4.2-2.5c1.4-1,2.7-2,3.9-3.1C414.8,66.5,415.9,65.4,416.8,64.3z M435.8,67.5L441,64
			c1.4,0.9,2.8,1.8,4.3,3c1.6,1.1,3.1,2.2,4.5,3.3c1.4,1.1,2.5,2.2,3.4,3.1l-5.5,3.9c-0.8-1-1.8-2-3.2-3.2c-1.3-1.2-2.8-2.3-4.3-3.5
			C438.7,69.5,437.2,68.4,435.8,67.5z M410.3,46.4l4.2-3.9c1.4,0.8,2.9,1.8,4.5,2.8c1.6,1.1,3.1,2.1,4.6,3.2
			c1.5,1.1,2.6,2.1,3.5,3.1l-4.6,4.5c-0.8-1-1.9-2-3.3-3.1c-1.4-1.2-2.9-2.3-4.5-3.4C413.2,48.3,411.7,47.2,410.3,46.4z M436.9,52.8
			l5.1-3.2c1.4,1.2,2.9,2.5,4.4,3.9c1.6,1.4,3,2.9,4.4,4.3c1.4,1.4,2.5,2.7,3.3,3.9l-5.5,3.7c-0.8-1.2-1.8-2.5-3.1-3.9
			c-1.3-1.5-2.7-3-4.2-4.5C439.8,55.4,438.3,54,436.9,52.8z M426.3,59.7h6.6v18.5h-6.6V59.7z M406.5,56.9c2.6,0,5.5-0.1,8.7-0.2
			c3.3-0.1,6.7-0.1,10.3-0.2c3.6-0.1,7.4-0.1,11.2-0.2c3.8-0.1,7.5-0.2,11.2-0.3l-0.3,5.6c-4.8,0.2-9.7,0.4-14.6,0.6
			c-4.9,0.2-9.6,0.3-14.1,0.5c-4.4,0.1-8.4,0.3-11.9,0.4L406.5,56.9z M437.1,39l6,3.2c-1.7,1.7-3.5,3.4-5.4,5.1
			c-1.9,1.7-3.8,3.4-5.8,5c-1.9,1.6-3.9,3.2-5.8,4.7c-1.9,1.4-3.7,2.7-5.5,3.8l-4.8-3.1c1.7-1.2,3.6-2.5,5.5-4
			c1.9-1.5,3.9-3.1,5.7-4.8c1.9-1.7,3.7-3.4,5.4-5.1C434.1,42.2,435.7,40.6,437.1,39z M424.1,35.5l6,3c-1.1,1.2-2.2,2.5-3.4,3.7
			c-1.2,1.3-2.4,2.5-3.6,3.6c-1.2,1.1-2.3,2.1-3.3,2.9l-5-2.8c1-0.9,2-1.9,3.2-3.1c1.1-1.2,2.2-2.4,3.3-3.7
			C422.5,37.8,423.4,36.6,424.1,35.5z M445.5,30.5l4.3,5.2c-2.8,0.6-5.9,1.1-9.2,1.5c-3.3,0.4-6.7,0.8-10.2,1.1
			c-3.5,0.3-7.1,0.5-10.6,0.6c-3.5,0.1-6.9,0.2-10.3,0.3c0-0.8-0.2-1.7-0.5-2.8c-0.3-1.1-0.6-2-0.9-2.7c3.3-0.1,6.7-0.2,10.1-0.4
			c3.4-0.2,6.8-0.4,10.1-0.7c3.3-0.3,6.4-0.6,9.4-0.9C440.6,31.4,443.2,31,445.5,30.5z M492.7,45.5l4.7-2.4c0.9,1.2,1.9,2.5,2.8,3.9
			c1,1.4,1.8,2.7,2.7,4.1c0.8,1.3,1.5,2.5,1.9,3.6l-5.2,2.7c-0.4-1.1-0.9-2.3-1.7-3.6c-0.8-1.4-1.6-2.8-2.5-4.2
			C494.5,48.2,493.6,46.8,492.7,45.5z M475.7,36.8h28.6v5.5h-28.6V36.8z M490.2,55.9h6v14.4c0,0.8,0.1,1.3,0.2,1.5
			c0.1,0.2,0.3,0.3,0.7,0.3c0.1,0,0.3,0,0.5,0c0.2,0,0.5,0,0.7,0c0.2,0,0.4,0,0.5,0c0.3,0,0.5-0.2,0.7-0.5c0.1-0.4,0.2-1.1,0.3-2.2
			c0.1-1.1,0.2-2.8,0.2-5c0.6,0.5,1.4,1,2.4,1.5c1.1,0.4,2,0.7,2.8,1c-0.1,2.7-0.4,4.8-0.8,6.3c-0.4,1.5-1,2.5-1.8,3.1
			c-0.8,0.6-1.8,0.9-3.1,0.9c-0.2,0-0.5,0-0.8,0c-0.3,0-0.6,0-1,0c-0.3,0-0.7,0-1,0c-0.3,0-0.6,0-0.8,0c-1.5,0-2.7-0.2-3.5-0.7
			c-0.8-0.4-1.4-1.2-1.7-2.2c-0.3-1-0.5-2.3-0.5-4V55.9z M480.5,56h6c-0.1,2.7-0.3,5.2-0.6,7.5c-0.3,2.3-0.8,4.4-1.6,6.2
			c-0.8,1.8-1.8,3.5-3.3,5c-1.4,1.5-3.3,2.7-5.6,3.8c-0.2-0.5-0.5-1.1-1-1.7c-0.4-0.6-0.9-1.3-1.4-1.9c-0.5-0.6-0.9-1.1-1.4-1.4
			c1.9-0.8,3.5-1.8,4.6-2.9c1.2-1.1,2-2.4,2.6-3.8c0.6-1.4,1-3,1.2-4.8C480.3,60.1,480.4,58.1,480.5,56z M476.2,56.8l-0.2-4.5l3-1.8
			l19.5-1.7c0,0.8,0.1,1.6,0.2,2.6c0.1,1,0.3,1.7,0.4,2.3c-3.7,0.4-6.8,0.7-9.4,1c-2.5,0.3-4.6,0.5-6.2,0.7
			c-1.6,0.2-2.9,0.3-3.8,0.5c-1,0.1-1.7,0.3-2.2,0.4C477,56.5,476.6,56.6,476.2,56.8z M485,31.3l5.8-1.4c0.4,0.9,0.9,2,1.4,3.1
			c0.5,1.1,0.9,2.1,1.2,2.9l-6.1,1.7c-0.2-0.9-0.5-1.9-1-3C485.9,33.4,485.5,32.3,485,31.3z M476.2,56.8c-0.1-0.5-0.3-1.1-0.5-1.9
			c-0.2-0.8-0.4-1.5-0.7-2.3c-0.2-0.8-0.5-1.3-0.7-1.7c0.6-0.1,1.2-0.3,1.9-0.6c0.7-0.3,1.3-0.7,1.9-1.2c0.3-0.3,0.9-0.9,1.5-1.8
			c0.7-0.9,1.5-1.8,2.3-2.9c0.8-1.1,1.6-2.1,2.4-3.2c0.8-1,1.4-1.9,1.9-2.6h7.2c-0.7,1-1.6,2.2-2.5,3.5c-0.9,1.3-1.9,2.6-2.9,3.9
			c-1,1.3-2,2.6-2.9,3.8c-1,1.2-1.8,2.2-2.6,3c0,0-0.2,0.1-0.7,0.3c-0.4,0.1-0.9,0.3-1.5,0.6c-0.6,0.3-1.2,0.6-1.9,0.9
			c-0.6,0.3-1.1,0.6-1.6,1C476.4,56.2,476.2,56.5,476.2,56.8z M458.8,64.9c-0.1-0.4-0.2-1-0.5-1.6c-0.2-0.7-0.5-1.4-0.8-2.2
			c-0.2-0.8-0.5-1.4-0.8-1.8c0.7-0.2,1.3-0.5,1.9-1.1c0.6-0.5,1.3-1.3,2.1-2.3c0.4-0.4,1-1.2,1.8-2.2s1.6-2.3,2.6-3.7
			c1-1.4,1.9-3,2.9-4.7c1-1.7,1.9-3.4,2.7-5.1l5.4,3.3c-1.8,3.3-3.9,6.5-6.2,9.7c-2.4,3.2-4.7,6-7.2,8.4v0.2c0,0-0.2,0.1-0.6,0.3
			c-0.4,0.2-0.8,0.5-1.4,0.8c-0.5,0.3-1,0.6-1.4,1C459,64.3,458.8,64.7,458.8,64.9z M458.8,64.9l-0.5-5.1l2.6-1.9l13.6-2.8
			c-0.1,0.9-0.1,1.8-0.1,2.9s0.1,1.9,0.2,2.6c-3.1,0.7-5.6,1.3-7.5,1.7c-1.9,0.5-3.4,0.9-4.5,1.2c-1.1,0.3-1.9,0.6-2.5,0.8
			C459.5,64.5,459.1,64.7,458.8,64.9z M458.5,52.4c-0.1-0.4-0.3-1-0.6-1.7c-0.2-0.8-0.5-1.5-0.8-2.4c-0.3-0.8-0.5-1.5-0.8-2
			c0.5-0.2,1.1-0.5,1.5-1c0.5-0.5,1-1.2,1.6-2c0.3-0.4,0.6-1,1.1-1.9c0.5-0.9,1.1-2,1.6-3.3c0.6-1.3,1.2-2.6,1.8-4
			c0.6-1.5,1.1-2.9,1.5-4.4l6.2,2.9c-0.8,1.9-1.7,3.9-2.8,5.9c-1.1,2-2.2,3.9-3.4,5.7c-1.2,1.8-2.4,3.5-3.6,5v0.2
			c0,0-0.2,0.1-0.5,0.4c-0.3,0.2-0.8,0.5-1.2,0.8c-0.4,0.3-0.8,0.7-1.2,1.1C458.6,51.9,458.5,52.2,458.5,52.4z M458.5,52.4l-0.2-4.5
			l2.6-1.7l8.6-0.7c-0.2,0.8-0.3,1.7-0.5,2.7c-0.1,1-0.2,1.8-0.2,2.5c-1.9,0.2-3.5,0.4-4.7,0.6c-1.2,0.1-2.2,0.3-3,0.4
			c-0.7,0.1-1.3,0.3-1.7,0.4C459,52.2,458.7,52.3,458.5,52.4z M457.1,70.1c1.5-0.4,3.1-1,5-1.6c1.9-0.6,3.9-1.3,6-2.1
			c2.1-0.8,4.2-1.5,6.3-2.3l1.1,5.2c-2.9,1.2-5.9,2.4-8.9,3.6c-3,1.2-5.7,2.2-8.2,3.2L457.1,70.1z"/>
	</g>
</g>
</svg>
