<svg width="5908" height="962" viewBox="0 0 5908 962" fill="none" xmlns="http://www.w3.org/2000/svg">
<path d="M480.499 10.0996C739.793 10.0998 949.988 220.21 949.988 479.499C949.988 738.791 739.791 948.988 480.499 948.988C221.21 948.988 11.0998 738.793 11.0996 479.499C11.0996 220.208 221.208 10.0996 480.499 10.0996Z" stroke="#0066FF" stroke-width="14"/>
<path fill-rule="evenodd" clip-rule="evenodd" d="M480.778 479.441C349.24 479.441 242.22 372.93 242.22 241.54C242.22 110.149 349.23 3.63867 480.778 3.63867C217.271 3.63867 3.66309 216.66 3.66309 479.441C3.66309 742.215 217.271 955.236 480.778 955.236C612.524 955.236 719.329 848.726 719.329 717.335C719.327 585.95 612.524 479.441 480.778 479.441Z" fill="url(#paint0_linear_469_372)"/>
<path fill-rule="evenodd" clip-rule="evenodd" d="M395.576 241.54C395.576 288.462 433.719 326.501 480.778 326.501C527.83 326.501 565.972 288.462 565.972 241.54C565.972 194.617 527.83 156.574 480.778 156.574C433.719 156.574 395.576 194.617 395.576 241.54Z" fill="#0066FF"/>
<path fill-rule="evenodd" clip-rule="evenodd" d="M395.576 716.54C395.576 763.462 433.719 801.501 480.778 801.501C527.83 801.501 565.972 763.462 565.972 716.54C565.972 669.617 527.83 631.574 480.778 631.574C433.719 631.574 395.576 669.617 395.576 716.54Z" fill="white"/>
<path d="M254.499 278.998L398.499 246.498" stroke="#0066FF" stroke-width="3"/>
<path d="M407.499 222.498L232.499 155.498" stroke="#0066FF" stroke-width="3"/>
<path d="M550.499 211.498L666.499 148.498" stroke="#0066FF" stroke-width="3"/>
<path d="M553.499 244.498L693.499 265.498L838.499 310.498" stroke="#0066FF" stroke-width="3"/>
<path d="M679.499 154.498L714.499 400.498" stroke="#0066FF" stroke-width="3"/>
<path d="M720.499 406.498L848.999 311.498" stroke="#0066FF" stroke-width="3"/>
<path d="M825.499 583.498L850.499 308.498" stroke="#0066FF" stroke-width="3"/>
<path d="M850.999 305.498L822.499 149.498" stroke="#0066FF" stroke-width="3"/>
<path d="M682.499 147.498L823.499 150.498" stroke="#0066FF" stroke-width="3"/>
<path d="M700.499 661.498L714.499 404.498" stroke="#0066FF" stroke-width="3"/>
<path d="M702.499 665.5L825.499 586.5" stroke="#0066FF" stroke-width="3"/>
<path d="M829.499 575.498L715.499 406.498" stroke="#0066FF" stroke-width="3"/>
<path d="M825.499 582.998L956.499 476.498" stroke="#0066FF" stroke-width="3"/>
<path d="M956.499 477.498L850.499 307.498" stroke="#0066FF" stroke-width="3"/>
<path d="M483.499 476.498L708.499 404.498" stroke="#0066FF" stroke-width="3"/>
<path d="M696.499 736.5L816.499 746.5" stroke="#0066FF" stroke-width="3"/>
<path d="M824.999 750.5L828.499 586.5" stroke="#0066FF" stroke-width="3"/>
<path d="M676.499 139.498C676.499 139.498 556.933 22.721 485 8.5" stroke="#0066FF" stroke-width="3"/>
<path d="M956.499 477.498C956.499 477.498 863.227 715.626 828.499 732.498" stroke="#0066FF" stroke-width="3"/>
<path d="M823.499 747.5C823.499 747.5 646.356 961.392 479.499 950.5" stroke="#0066FF" stroke-width="3"/>
<path d="M115.499 171.498L204.499 144.498" stroke="white" stroke-width="3"/>
<path d="M108.499 350.498L116.499 172.498" stroke="white" stroke-width="3"/>
<path d="M207.499 151.498L107.499 338.498" stroke="white" stroke-width="3"/>
<path d="M3.49902 478.498L107.499 347.498" stroke="white" stroke-width="3"/>
<path d="M122.499 696.498L3.49902 477.498" stroke="white" stroke-width="3"/>
<path d="M125.499 692.498L107.499 349.498" stroke="white" stroke-width="3"/>
<path d="M263.499 611.498L111.499 346.498" stroke="white" stroke-width="3"/>
<path d="M270.499 613.498L248.499 285.498" stroke="white" stroke-width="3"/>
<path d="M111.499 340.498L249.499 279.498" stroke="white" stroke-width="3"/>
<path d="M125.499 699.5L266.499 618" stroke="white" stroke-width="3"/>
<path d="M483.499 475.498L270.499 613.498" stroke="white" stroke-width="3"/>
<path d="M121.999 695.5L273.499 764" stroke="white" stroke-width="3"/>
<path d="M280.499 767.5L263.999 614.5" stroke="white" stroke-width="3"/>
<path d="M172.499 842.5L120.499 696.5" stroke="white" stroke-width="3"/>
<path d="M276.499 768.5L416.499 732.5" stroke="white" stroke-width="3"/>
<path d="M407.499 683.5L267.499 614.5" stroke="white" stroke-width="3"/>
<path d="M216.499 135.499C216.499 135.499 312.361 18.1277 445.5 20.0007" stroke="white" stroke-width="3"/>
<path d="M473.499 956.5C473.499 956.5 376.259 944.926 281.499 774.5" stroke="white" stroke-width="3"/>
<path d="M172.499 841.5C172.499 841.5 315.1 910.484 472.499 956.5" stroke="white" stroke-width="3"/>
<path d="M693.499 659.5L558.499 705.5" stroke="white" stroke-width="3"/>
<path d="M550.499 725.5L724.499 738.5" stroke="white" stroke-width="3"/>
<path d="M255.499 164.498L221.499 149.998" stroke="white" stroke-width="3"/>
<path fill-rule="evenodd" clip-rule="evenodd" d="M207.999 126.498C216.56 126.498 223.499 133.438 223.499 141.998C223.499 150.559 216.56 157.498 207.999 157.498C199.439 157.498 192.499 150.559 192.499 141.998C192.499 133.438 199.439 126.498 207.999 126.498Z" fill="white"/>
<path fill-rule="evenodd" clip-rule="evenodd" d="M106.999 324.498C115.56 324.498 122.499 331.438 122.499 339.998C122.499 348.559 115.56 355.498 106.999 355.498C98.439 355.498 91.499 348.559 91.499 339.998C91.499 331.438 98.439 324.498 106.999 324.498Z" fill="white"/>
<path fill-rule="evenodd" clip-rule="evenodd" d="M123.999 681.5C132.56 681.5 139.499 688.44 139.499 697C139.499 705.561 132.56 712.5 123.999 712.5C115.439 712.5 108.499 705.561 108.499 697C108.499 688.44 115.439 681.5 123.999 681.5Z" fill="white"/>
<path fill-rule="evenodd" clip-rule="evenodd" d="M266.999 599.5C275.56 599.5 282.499 606.44 282.499 615C282.499 623.561 275.56 630.5 266.999 630.5C258.439 630.5 251.499 623.561 251.499 615C251.499 606.44 258.439 599.5 266.999 599.5Z" fill="white"/>
<path fill-rule="evenodd" clip-rule="evenodd" d="M274.999 749.5C283.56 749.5 290.499 756.44 290.499 765C290.499 773.561 283.56 780.5 274.999 780.5C266.439 780.5 259.499 773.561 259.499 765C259.499 756.44 266.439 749.5 274.999 749.5Z" fill="white"/>
<path fill-rule="evenodd" clip-rule="evenodd" d="M699.999 650.5C708.56 650.5 715.499 657.44 715.499 666C715.499 674.561 708.56 681.5 699.999 681.5C691.439 681.5 684.499 674.561 684.499 666C684.499 657.44 691.439 650.5 699.999 650.5Z" fill="white" stroke="#0066FF"/>
<path fill-rule="evenodd" clip-rule="evenodd" d="M480.999 461.498C489.56 461.498 496.499 468.438 496.499 476.998C496.499 485.559 489.56 492.498 480.999 492.498C472.439 492.498 465.499 485.559 465.499 476.998C465.499 468.438 472.439 461.498 480.999 461.498Z" fill="white" stroke="#0066FF"/>
<path fill-rule="evenodd" clip-rule="evenodd" d="M247.999 265.498C256.56 265.498 263.499 272.438 263.499 280.998C263.499 289.559 256.56 296.498 247.999 296.498C239.439 296.498 232.499 289.559 232.499 280.998C232.499 272.438 239.439 265.498 247.999 265.498Z" fill="white" stroke="#0066FF"/>
<path fill-rule="evenodd" clip-rule="evenodd" d="M715.999 388.498C724.56 388.498 731.499 395.438 731.499 403.998C731.499 412.559 724.56 419.498 715.999 419.498C707.439 419.498 700.499 412.559 700.499 403.998C700.499 395.438 707.439 388.498 715.999 388.498Z" fill="#0066FF"/>
<path fill-rule="evenodd" clip-rule="evenodd" d="M677.999 133.498C686.56 133.498 693.499 140.438 693.499 148.998C693.499 157.559 686.56 164.498 677.999 164.498C669.439 164.498 662.499 157.559 662.499 148.998C662.499 140.438 669.439 133.498 677.999 133.498Z" fill="#0066FF"/>
<path fill-rule="evenodd" clip-rule="evenodd" d="M850.999 297.498C859.56 297.498 866.499 304.438 866.499 312.998C866.499 321.559 859.56 328.498 850.999 328.498C842.439 328.498 835.499 321.559 835.499 312.998C835.499 304.438 842.439 297.498 850.999 297.498Z" fill="#0066FF"/>
<path fill-rule="evenodd" clip-rule="evenodd" d="M829.999 568.5C838.56 568.5 845.499 575.44 845.499 584C845.499 592.561 838.56 599.5 829.999 599.5C821.439 599.5 814.499 592.561 814.499 584C814.499 575.44 821.439 568.5 829.999 568.5Z" fill="#0066FF"/>
<path fill-rule="evenodd" clip-rule="evenodd" d="M821.999 730.5C830.56 730.5 837.499 737.44 837.499 746C837.499 754.561 830.56 761.5 821.999 761.5C813.439 761.5 806.499 754.561 806.499 746C806.499 737.44 813.439 730.5 821.999 730.5Z" fill="#0066FF"/>
<path fill-rule="evenodd" clip-rule="evenodd" d="M2338.95 69.6574L2299.46 242.604C2299.01 245.206 2294.48 245.33 2293.82 242.76L2255.56 164.8C2255.39 165.171 2255.32 164.065 2255.13 163.73C2252.51 159.137 2255.21 157.273 2256.53 155.626L2335.98 68.1109C2337.25 67.1341 2339.34 67.9181 2338.95 69.6574ZM2237.12 123.101L2252.09 66H2295.5L2242.26 124.64C2240.57 126.582 2236.52 125.372 2237.12 123.101ZM2255.43 245.258H2208.42C2206.83 245.258 2205.76 243.62 2206.38 242.143L2221.64 183.792C2222.11 181.984 2224.54 181.711 2225.4 183.369L2256.48 243.507C2256.89 245.435 2256.32 245.258 2255.43 245.258ZM2179.72 241.212H2143.34L2160.06 146.499C2160.49 144.455 2159.99 142.003 2158.56 140.522C2157.13 138.545 2155.88 137.677 2152.79 137.677H2119.27C2116.84 137.677 2114.65 138.545 2112.7 140.522C2110.75 142.003 2109.56 144.455 2109.13 146.499L2093.49 241.212H2056.04L2071.8 151.949C2073.01 145.031 2075.88 138.63 2080.38 133.545C2084.89 126.867 2090.34 122.196 2096.76 119.02C2103.17 115.275 2109.76 113.544 2116.51 113.544H2163.8C2170.56 113.544 2177.62 115.275 2181.98 119.02C2187.35 122.196 2191.24 126.867 2193.67 133.545C2196.09 138.63 2197.43 145.031 2196.56 151.949L2179.72 241.212ZM2019.14 99.2931L2024.72 66.836H2060.84L2055.25 99.2931H2019.14ZM2030.05 241.212H1993.94L2016.48 113.544H2052.59L2030.05 241.212ZM1920.59 218.117H1982.43L1978.21 241.99H1909.36C1903.42 241.99 1896.62 240.304 1891.41 236.931C1886.5 233.556 1882.38 228.975 1880.41 223.178C1878.59 217.383 1876.9 210.941 1878.16 203.846L1902.07 68.3938H1938.45L1913.53 209.554C1913.13 211.805 1913.6 213.795 1914.94 215.523C1916.28 217.254 1918.16 218.117 1920.59 218.117ZM1785.99 242.184C1748.41 242.184 1720.48 213.993 1723.61 179.22C1726.74 144.446 1759.75 117.079 1797.33 117.079C1834.92 117.079 1862.85 144.446 1859.71 179.22C1856.58 213.993 1823.58 242.184 1785.99 242.184ZM1794.93 142.968C1773.29 142.968 1755.02 159.199 1752.48 179.22C1750.68 199.241 1766.76 215.472 1788.4 215.472C1810.04 215.472 1829.04 199.241 1830.84 179.22C1832.65 159.199 1816.57 142.968 1794.93 142.968ZM1731.2 137.677H1692.4L1679.93 208.257C1679.47 210.852 1679.97 212.972 1682.31 214.615C1682.85 216.26 1684.78 217.08 1687.21 217.08H1716.31L1712.1 240.952H1676.24C1669.13 240.952 1662.95 239.18 1657.69 235.633C1652.69 232.09 1648.62 227.419 1646.27 221.62C1643.91 215.826 1643.31 209.643 1644.47 203.067L1656.02 137.677H1630.03L1633.99 113.803H1660.24L1668.48 67.0961H1704.86L1696.61 113.803H1734.54L1731.2 137.677ZM1590.71 241.212H1554.34L1571.06 146.499C1571.48 144.455 1570.98 142.003 1570.57 140.522C1568.13 138.545 1566.21 137.677 1563.78 137.677H1530.26C1527.84 137.677 1525.65 138.545 1523.7 140.522C1522.29 142.003 1520.56 144.455 1520.13 146.499L1503.41 241.212H1467.03L1483.4 151.949C1484.27 145.031 1486.87 138.63 1491.38 133.545C1495.88 126.867 1501.34 122.196 1507.75 119.02C1514.36 115.275 1520.75 113.544 1527.51 113.544H1574.8C1581.55 113.544 1587.61 115.275 1592.98 119.02C1598.34 122.196 1603.24 126.867 1604.89 133.545C1607.09 138.63 1607.69 145.031 1606.47 151.949L1590.71 241.212ZM1363.04 246C1318.43 246 1286.28 208.413 1291.24 162.048C1296.2 115.682 1336.38 78.0961 1381.59 78.0961C1425.6 78.0961 1457.74 115.682 1452.79 162.048C1447.83 208.413 1407.65 246 1363.04 246ZM1377.84 107.534C1346.85 107.534 1323.01 129.833 1319.56 162.048C1316.12 194.263 1335.19 216.562 1366.19 216.562C1397.18 216.562 1421.02 194.263 1424.46 162.048C1427.91 129.833 1408.84 107.534 1377.84 107.534ZM1274.05 135.081C1273.35 139.634 1272.03 142.696 1268.88 145.98C1266.13 150.341 1263.03 151.94 1258.89 153.245C1257.94 153.764 1256.38 154.198 1254.25 154.543C1258.42 155.411 1261.65 157.227 1263.94 159.993C1267.07 163.8 1268.15 168.47 1267.18 174.005L1261.95 203.586C1260.73 210.507 1257.92 216.91 1253.5 223.337C1249.08 228.671 1243.67 233.298 1237.28 236.671C1230.88 240.044 1224.21 241.731 1217.28 241.731H1104L1134.84 68.3938H1247.89C1254.65 68.3938 1260.67 70.0798 1265.97 73.453C1271.26 76.8262 1275.08 81.4566 1277.41 87.3365C1279.75 93.219 1280.31 99.6216 1279.09 106.538L1274.05 135.081ZM1144.33 217.857H1214.49C1216.91 217.857 1219.1 216.995 1221.05 215.263C1223 213.535 1224.19 211.46 1224.62 209.036L1230.62 175.042C1231.05 172.622 1230.59 170.546 1229.25 168.815C1227.91 167.088 1226.03 166.22 1223.6 166.22H1153.58L1144.33 217.857ZM1242.33 94.7312C1240.97 93.0896 1239.09 92.2663 1236.66 92.2663H1166.51L1157.62 142.607H1227.77C1231.04 142.607 1232.38 141.787 1234.31 140.142C1236.25 138.499 1237.45 136.379 1237.9 133.784L1243.68 101.089C1244.13 99.2931 1243.69 96.3778 1242.33 94.7312Z" fill="#0066FF"/>
<path d="M1369.1 393.8V453.8H1165.1L1160.3 393.8H1369.1ZM1520.3 506.6V539.6C1520.3 672.2 1501.1 779.6 1445.9 893H1367.9C1429.7 768.8 1449.5 663.8 1449.5 539.6V506.6H1400.3L1394.9 444.2H1449.5V353H1520.3V444.2H1600.1C1632.5 444.2 1646.9 459.2 1648.1 492.2C1652.3 602 1653.5 715.4 1648.1 825.2C1646.3 865.4 1625.9 887 1580.9 889.4C1556.3 890.6 1528.7 888.8 1504.7 884.6L1488.5 821.6C1508.9 825.8 1532.9 828.2 1553.3 826.4C1569.5 825.2 1576.7 818 1577.9 803C1583.9 719.6 1583.3 607.4 1577.9 515.6C1577.3 509.6 1574.9 506.6 1568.9 506.6H1520.3ZM1277.9 592.4C1270.1 657.8 1246.1 725 1210.7 779.6H1318.1L1288.7 663.2H1359.5L1391.3 794C1397.3 818.6 1381.1 842 1354.1 842H1135.1L1130.3 779.6H1141.7C1174.1 718.4 1194.5 656.6 1202.9 592.4H1135.1L1130.3 532.4H1394.3V592.4H1277.9ZM2196.5 846.8L2159.3 701H2233.1L2270.3 846.8H2196.5ZM2003.3 784.4L1978.1 685.4H2047.7L2072.9 784.4H2003.3ZM1944.5 789.8C1944.5 808.4 1952.9 818 1969.1 821C1999.7 826.4 2030.3 826.4 2062.7 821C2078.3 818.6 2088.5 807.2 2088.5 789.8V750.8L2158.7 760.4V812C2159.3 848.6 2129.9 878.6 2087.9 883.4C2036.9 889.4 1995.5 889.4 1941.5 883.4C1900.1 878.6 1871.3 848.6 1871.3 812V687.2H1944.5V789.8ZM1776.5 701H1850.3L1819.1 846.8H1745.3L1776.5 701ZM2066.3 488.6C2096.9 536 2163.5 587 2276.9 606.2L2258.3 675.8C2122.1 650 2045.9 585.2 2007.5 522.8C1996.1 540.8 1980.5 558.8 1961.9 575H2002.7L2054.3 656H1976.9L1937.3 594.2C1890.5 627.2 1827.5 654.2 1749.5 670.4L1730.9 602.6C1859.3 572 1921.1 528.8 1946.9 488.6H1756.1L1750.1 427.4H1962.5V354.2H2034.5V427.4H2260.7V488.6H2066.3ZM2671.1 515.6C2710.7 606.2 2782.7 689 2882.9 750.2L2855.9 828.2C2753.3 759.2 2684.9 687.8 2641.7 603.2V735.8H2732.9V795.8H2641.7V893H2567.3V795.8H2480.3L2474.3 735.8H2567.3V603.2C2524.1 687.8 2455.7 759.2 2353.1 828.2L2326.1 750.2C2426.3 689 2498.3 606.2 2537.9 515.6H2363.3L2357.3 453.2H2567.3V353H2641.7V453.2H2848.7V515.6H2671.1ZM3368.9 515.6C3391.1 597.2 3429.5 669.2 3489.5 731.6L3468.5 813.2C3392.3 737 3342.5 656.6 3316.1 559.4V735.8H3396.5V795.8H3316.1V893H3242.9V795.8H3167.3L3161.3 735.8H3242.9V563.6C3216.5 659 3166.7 738.2 3091.7 813.2L3070.1 731.6C3130.1 669.2 3168.5 597.2 3191.3 515.6H3106.7L3100.7 453.2H3242.9V353H3316.1V453.2H3458.3V515.6H3368.9ZM2993.9 560.6H3021.5C3048.5 560.6 3063.5 575.6 3063.5 602.6V893H2990.3V604.4H2947.7L2925.5 540.2C2986.7 488.6 3025.1 426.8 3042.5 353H3119.9C3102.5 444.2 3053.9 515 2993.9 560.6ZM4005.5 601.4C4009.7 608 4012.1 616.4 4012.1 624.8V669.2C4012.1 694.4 3992.3 714.8 3966.5 714.8H3656.3V741.2H3988.1C4013.9 741.2 4033.7 761.6 4033.7 786.8V834.8C4033.7 860 4013.3 881 3987.5 881H3632.3C3606.5 881 3584.3 858.2 3584.3 833V627.2C3584.3 618.2 3587.3 609.2 3592.1 601.4H3547.1V546.8C3547.1 518 3566.3 498.8 3595.1 498.8H3768.5V462.8H3814.1L3805.1 437H3746.9V482H3677.3V437H3647.3C3623.3 466.4 3590.9 489.2 3549.5 503.6L3527.3 439.4C3576.5 420.2 3596.9 398 3612.5 353H3688.1C3685.7 362.6 3682.7 371.6 3679.1 380.6H3810.5V423.2C3841.7 402.2 3859.7 379.4 3863.9 353H3939.5C3937.7 362.6 3935.3 372.2 3932.3 380.6H4073.3V437H4004.9V484.4H3935.3V437H3900.5C3884.9 454.4 3865.7 468.8 3840.5 482.6V498.8H4015.1C4043.9 498.8 4063.1 518 4063.1 546.8V601.4H4005.5ZM3991.1 586.4V564.2C3991.1 558.8 3987.5 555.2 3982.1 555.2H3628.1C3622.7 555.2 3619.1 558.8 3619.1 564.2V581C3623.3 579.8 3627.5 579.2 3632.3 579.2H3966.5C3975.5 579.2 3983.9 581.6 3991.1 586.4ZM3656.3 795.2V818C3656.3 823.4 3659.9 827 3665.3 827H3952.7C3958.1 827 3961.7 823.4 3961.7 818V804.2C3961.7 798.8 3958.1 795.2 3952.7 795.2H3656.3ZM3656.3 660.8H3931.1C3936.5 660.8 3940.1 657.2 3940.1 651.8V642.2C3940.1 636.8 3936.5 633.2 3931.1 633.2H3665.3C3659.9 633.2 3656.3 636.8 3656.3 642.2V660.8ZM4583.9 542H4529.9V599H4574.9C4580.3 599 4583.9 595.4 4583.9 590V542ZM4583.9 484.4V440C4583.9 434.6 4580.3 431 4574.9 431H4529.9V484.4H4583.9ZM4529.9 813.8H4675.7V873.8H4319.3L4314.5 823.4L4138.1 858.8L4127.3 796.4L4193.9 783.2V623H4143.5L4137.5 563H4193.9V443H4139.9L4133.9 383H4319.9V443H4262.3V563H4312.1V623H4262.3V770L4322.9 758V813.8H4460.3V764H4339.1L4333.1 704H4460.3V659H4385.9C4354.7 659 4337.9 642.2 4337.9 611V419C4337.9 387.8 4354.7 371 4385.9 371H4604.3C4635.5 371 4652.3 387.8 4652.3 419V611C4652.3 642.2 4635.5 659 4604.3 659H4529.9V704H4656.5V764H4529.9V813.8ZM4460.3 599V542H4406.3V590C4406.3 595.4 4409.9 599 4415.3 599H4460.3ZM4460.3 484.4V431H4415.3C4409.9 431 4406.3 434.6 4406.3 440V484.4H4460.3ZM5188.7 883.4L5135.3 735.8H5210.3L5266.1 883.4H5188.7ZM4822.1 883.4H4745.3L4801.7 735.8H4876.1L4822.1 883.4ZM5053.1 706.4V822.8C5053.1 865.4 5029.1 887 4987.7 890C4956.5 892.4 4929.5 890.6 4900.7 885.8L4882.7 824C4909.7 828.8 4937.3 830.6 4960.7 828.8C4972.1 827.6 4977.5 821 4977.5 810.2V706.4H4762.1L4750.1 646.4H4759.7C4828.7 630.8 4886.9 610.4 4936.1 587H4786.1L4776.5 527H4783.1C4831.1 513.2 4891.1 473 4925.3 442.4H4754.3L4749.5 380H4943.9C5058.5 380 5161.7 380.6 5260.7 365.6V428C5173.1 440.6 5093.3 442.4 5009.9 442.4C4987.7 470.6 4947.5 503.6 4907.9 527H5035.7C5060.9 508.4 5082.5 488 5101.1 467.6H5191.1C5141.9 542.6 5054.9 606.2 4951.1 646.4H5164.1L5137.1 563.6H5215.1L5243.9 651.8C5255.3 684.8 5242.1 706.4 5214.5 706.4H5053.1ZM5779.1 640.4V808.4C5779.1 815 5782.7 818.6 5789.9 819.8C5795.9 821 5801.9 821 5807.9 819.8C5815.1 818.6 5818.7 815 5818.7 808.4V744.2L5879.3 754.4V828.8C5879.3 855.2 5858.9 876.2 5831.9 879.8C5807.9 882.8 5779.1 882.8 5755.7 879.8C5728.7 876.2 5708.3 855.2 5708.3 828.8V640.4H5667.5V683.6C5667.5 798.2 5620.1 852.2 5530.7 893L5514.5 836L5338.1 867.2L5328.5 801.8L5531.3 766.4V808.4C5578.7 777.2 5597.3 738.8 5597.3 681.2V640.4H5545.1L5539.7 580.4H5552.9C5589.5 539 5603.9 512 5612.9 468.2H5545.1C5533.1 527 5493.5 610.4 5445.5 662L5529.5 653V717.8L5349.5 735.8L5341.7 673.4L5359.1 671.6C5384.3 646.4 5407.1 618.2 5426.3 586.4L5341.1 590.6L5332.7 528.2L5345.3 527.6C5386.7 471.8 5404.1 418.4 5420.9 353H5488.1C5473.7 417.8 5453.9 475.4 5418.5 525.2L5458.7 523.4C5468.3 501.2 5476.1 478.4 5482.1 453.8H5543.9L5539.1 408.2H5663.3V351.8H5736.5V408.2H5864.9V468.2H5687.3C5677.7 516.8 5658.5 550.4 5627.9 580.4H5767.1L5726.9 492.8H5806.1L5846.9 581C5862.5 615.2 5851.1 640.4 5810.9 640.4H5779.1Z" fill="#0066FF"/>
<defs>
<linearGradient id="paint0_linear_469_372" x1="719.329" y1="479.437" x2="3.66309" y2="479.437" gradientUnits="userSpaceOnUse">
<stop stop-color="#0066FF"/>
<stop offset="0.5" stop-color="#0066FF"/>
<stop offset="1" stop-color="#0044AB"/>
</linearGradient>
</defs>
</svg>
