<?xml version="1.0" encoding="utf-8"?>
<!-- Generator: Adobe Illustrator 24.0.1, SVG Export Plug-In . SVG Version: 6.00 Build 0)  -->
<svg version="1.1" id="图层_1" xmlns="http://www.w3.org/2000/svg" xmlns:xlink="http://www.w3.org/1999/xlink" x="0px" y="0px"
	 viewBox="0 0 5908 962" style="enable-background:new 0 0 5908 962;" xml:space="preserve">
<style type="text/css">
	.st0{fill:#FFFFFF;stroke:#036CEA;stroke-width:14;}
	.st1{fill-rule:evenodd;clip-rule:evenodd;fill:url(#SVGID_1_);}
	.st2{fill-rule:evenodd;clip-rule:evenodd;fill:#0566DB;}
	.st3{fill-rule:evenodd;clip-rule:evenodd;fill:#FFFFFF;}
	.st4{fill:none;stroke:#0066FF;stroke-width:3;}
	.st5{fill:none;stroke:#FFFFFF;stroke-width:3;}
	.st6{fill-rule:evenodd;clip-rule:evenodd;fill:#FFFFFF;stroke:#0066FF;}
	.st7{fill-rule:evenodd;clip-rule:evenodd;fill:#0361EA;}
	.st8{fill-rule:evenodd;clip-rule:evenodd;fill:#0066FF;}
	.st9{fill:#0566DB;}
</style>
<path class="st0" d="M480.5,10.1C739.8,10.1,950,220.2,950,479.5C950,738.8,739.8,949,480.5,949C221.2,949,11.1,738.8,11.1,479.5
	C11.1,220.2,221.2,10.1,480.5,10.1z"/>
<linearGradient id="SVGID_1_" gradientUnits="userSpaceOnUse" x1="719.329" y1="482.5627" x2="3.6631" y2="482.5627" gradientTransform="matrix(1 0 0 -1 0 962)">
	<stop  offset="0" style="stop-color:#0066FF"/>
	<stop  offset="0.5" style="stop-color:#0066FF"/>
	<stop  offset="1" style="stop-color:#0044AB"/>
</linearGradient>
<path class="st1" d="M480.8,479.4c-131.5,0-238.6-106.5-238.6-237.9c0-131.4,107-237.9,238.6-237.9C217.3,3.6,3.7,216.7,3.7,479.4
	c0,262.8,213.6,475.8,477.1,475.8c131.7,0,238.6-106.5,238.6-237.9C719.3,586,612.5,479.4,480.8,479.4z"/>
<path class="st2" d="M395.6,241.5c0,46.9,38.1,85,85.2,85c47.1,0,85.2-38,85.2-85c0-46.9-38.1-85-85.2-85
	C433.7,156.6,395.6,194.6,395.6,241.5z"/>
<path class="st3" d="M395.6,716.5c0,46.9,38.1,85,85.2,85c47.1,0,85.2-38,85.2-85c0-46.9-38.1-85-85.2-85
	C433.7,631.6,395.6,669.6,395.6,716.5z"/>
<path class="st4" d="M254.5,279l144-32.5"/>
<path class="st4" d="M407.5,222.5l-175-67"/>
<path class="st4" d="M550.5,211.5l116-63"/>
<path class="st4" d="M553.5,244.5l140,21l145,45"/>
<path class="st4" d="M679.5,154.5l35,246"/>
<path class="st4" d="M720.5,406.5l128.5-95"/>
<path class="st4" d="M825.5,583.5l25-275"/>
<path class="st4" d="M851,305.5l-28.5-156"/>
<path class="st4" d="M682.5,147.5l141,3"/>
<path class="st4" d="M700.5,661.5l14-257"/>
<path class="st4" d="M702.5,665.5l123-79"/>
<path class="st4" d="M829.5,575.5l-114-169"/>
<path class="st4" d="M825.5,583l131-106.5"/>
<path class="st4" d="M956.5,477.5l-106-170"/>
<path class="st4" d="M483.5,476.5l225-72"/>
<path class="st4" d="M696.5,736.5l120,10"/>
<path class="st4" d="M825,750.5l3.5-164"/>
<path class="st4" d="M676.5,139.5c0,0-119.6-116.8-191.5-131"/>
<path class="st4" d="M956.5,477.5c0,0-93.3,238.1-128,255"/>
<path class="st4" d="M823.5,747.5c0,0-177.1,213.9-344,203"/>
<path class="st5" d="M115.5,171.5l89-27"/>
<path class="st5" d="M108.5,350.5l8-178"/>
<path class="st5" d="M207.5,151.5l-100,187"/>
<path class="st5" d="M3.5,478.5l104-131"/>
<path class="st5" d="M122.5,696.5l-119-219"/>
<path class="st5" d="M125.5,692.5l-18-343"/>
<path class="st5" d="M263.5,611.5l-152-265"/>
<path class="st5" d="M270.5,613.5l-22-328"/>
<path class="st5" d="M111.5,340.5l138-61"/>
<path class="st5" d="M125.5,699.5l141-81.5"/>
<path class="st5" d="M483.5,475.5l-213,138"/>
<path class="st5" d="M122,695.5L273.5,764"/>
<path class="st5" d="M280.5,767.5l-16.5-153"/>
<path class="st5" d="M172.5,842.5l-52-146"/>
<path class="st5" d="M276.5,768.5l140-36"/>
<path class="st5" d="M407.5,683.5l-140-69"/>
<path class="st5" d="M216.5,135.5c0,0,95.9-117.4,229-115.5"/>
<path class="st5" d="M473.5,956.5c0,0-97.2-11.6-192-182"/>
<path class="st5" d="M172.5,841.5c0,0,142.6,69,300,115"/>
<path class="st5" d="M693.5,659.5l-135,46"/>
<path class="st5" d="M550.5,725.5l174,13"/>
<path class="st5" d="M255.5,164.5l-34-14.5"/>
<path class="st3" d="M208,126.5c8.6,0,15.5,6.9,15.5,15.5c0,8.6-6.9,15.5-15.5,15.5c-8.6,0-15.5-6.9-15.5-15.5
	C192.5,133.4,199.4,126.5,208,126.5z"/>
<path class="st3" d="M107,324.5c8.6,0,15.5,6.9,15.5,15.5c0,8.6-6.9,15.5-15.5,15.5c-8.6,0-15.5-6.9-15.5-15.5
	C91.5,331.4,98.4,324.5,107,324.5z"/>
<path class="st3" d="M124,681.5c8.6,0,15.5,6.9,15.5,15.5c0,8.6-6.9,15.5-15.5,15.5c-8.6,0-15.5-6.9-15.5-15.5
	C108.5,688.4,115.4,681.5,124,681.5z"/>
<path class="st3" d="M269.5,582c17.1,0,31,13.9,31,31c0,17.1-13.9,31-31,31c-17.1,0-31-13.9-31-31C238.5,595.9,252.4,582,269.5,582z
	"/>
<path class="st3" d="M281.5,744c11,0,20,9,20,20c0,11-9,20-20,20c-11,0-20-9-20-20C261.5,753,270.5,744,281.5,744z"/>
<path class="st6" d="M697.5,641c11,0,20,9,20,20c0,11-9,20-20,20c-11,0-20-9-20-20C677.5,650,686.5,641,697.5,641z"/>
<path class="st6" d="M481.5,434c24.9,0,45,20.1,45,45c0,24.9-20.1,45-45,45c-24.9,0-45-20.1-45-45C436.5,454.1,456.6,434,481.5,434z
	"/>
<path class="st6" d="M247.5,254c17.1,0,31,13.9,31,31c0,17.1-13.9,31-31,31c-17.1,0-31-13.9-31-31C216.5,267.9,230.4,254,247.5,254z
	"/>
<path class="st2" d="M713.5,371c17.1,0,31,13.9,31,31c0,17.1-13.9,31-31,31c-17.1,0-31-13.9-31-31C682.5,384.9,696.4,371,713.5,371z
	"/>
<path class="st2" d="M677.5,118c17.1,0,31,13.9,31,31c0,17.1-13.9,31-31,31c-17.1,0-31-13.9-31-31C646.5,131.9,660.4,118,677.5,118z
	"/>
<path class="st7" d="M851,297.5c8.6,0,15.5,6.9,15.5,15.5c0,8.6-6.9,15.5-15.5,15.5c-8.6,0-15.5-6.9-15.5-15.5
	C835.5,304.4,842.4,297.5,851,297.5z"/>
<path class="st8" d="M830,568.5c8.6,0,15.5,6.9,15.5,15.5c0,8.6-6.9,15.5-15.5,15.5c-8.6,0-15.5-6.9-15.5-15.5
	C814.5,575.4,821.4,568.5,830,568.5z"/>
<path class="st8" d="M822,730.5c8.6,0,15.5,6.9,15.5,15.5c0,8.6-6.9,15.5-15.5,15.5c-8.6,0-15.5-6.9-15.5-15.5
	C806.5,737.4,813.4,730.5,822,730.5z"/>
<path class="st2" d="M2342.9,69.7l-39.5,172.9c-0.4,2.6-5,2.7-5.6,0.2l-38.3-78c-0.2,0.4-0.2-0.7-0.4-1.1c-2.6-4.6,0.1-6.5,1.4-8.1
	l79.4-87.5C2341.3,67.1,2343.3,67.9,2342.9,69.7z M2241.1,123.1l15-57.1h43.4l-53.2,58.6C2244.6,126.6,2240.5,125.4,2241.1,123.1z
	 M2259.4,245.3h-47c-1.6,0-2.7-1.6-2-3.1l15.3-58.4c0.5-1.8,2.9-2.1,3.8-0.4l31.1,60.1C2260.9,245.4,2260.3,245.3,2259.4,245.3z
	 M2183.7,241.2h-36.4l16.7-94.7c0.4-2-0.1-4.5-1.5-6c-1.4-2-2.7-2.8-5.8-2.8h-33.5c-2.4,0-4.6,0.9-6.6,2.8c-1.9,1.5-3.1,3.9-3.6,6
	l-15.6,94.7H2060l15.8-89.3c1.2-6.9,4.1-13.3,8.6-18.4c4.5-6.7,10-11.3,16.4-14.5c6.4-3.7,13-5.5,19.8-5.5h47.3
	c6.8,0,13.8,1.7,18.2,5.5c5.4,3.2,9.3,7.8,11.7,14.5c2.4,5.1,3.8,11.5,2.9,18.4L2183.7,241.2z M2023.1,99.3l5.6-32.5h36.1l-5.6,32.5
	H2023.1z M2034.1,241.2h-36.1l22.5-127.7h36.1L2034.1,241.2z M1924.6,218.1h61.8l-4.2,23.9h-68.8c-5.9,0-12.7-1.7-17.9-5.1
	c-4.9-3.4-9-8-11-13.8c-1.8-5.8-3.5-12.2-2.3-19.3l23.9-135.5h36.4l-24.9,141.2c-0.4,2.3,0.1,4.2,1.4,6
	C1920.3,217.3,1922.2,218.1,1924.6,218.1z M1790,242.2c-37.6,0-65.5-28.2-62.4-63c3.1-34.8,36.1-62.1,73.7-62.1
	c37.6,0,65.5,27.4,62.4,62.1C1860.6,214,1827.6,242.2,1790,242.2z M1798.9,143c-21.6,0-39.9,16.2-42.5,36.3
	c-1.8,20,14.3,36.3,35.9,36.3s40.6-16.2,42.4-36.3C1836.7,159.2,1820.6,143,1798.9,143z M1735.2,137.7h-38.8l-12.5,70.6
	c-0.5,2.6,0,4.7,2.4,6.4c0.5,1.6,2.5,2.5,4.9,2.5h29.1l-4.2,23.9h-35.9c-7.1,0-13.3-1.8-18.6-5.3c-5-3.5-9.1-8.2-11.4-14
	c-2.4-5.8-3-12-1.8-18.6l11.6-65.4h-26l4-23.9h26.3l8.2-46.7h36.4l-8.3,46.7h37.9L1735.2,137.7z M1594.7,241.2h-36.4l16.7-94.7
	c0.4-2-0.1-4.5-0.5-6c-2.4-2-4.4-2.8-6.8-2.8h-33.5c-2.4,0-4.6,0.9-6.6,2.8c-1.4,1.5-3.1,3.9-3.6,6l-16.7,94.7H1471l16.4-89.3
	c0.9-6.9,3.5-13.3,8-18.4c4.5-6.7,10-11.3,16.4-14.5c6.6-3.7,13-5.5,19.8-5.5h47.3c6.8,0,12.8,1.7,18.2,5.5
	c5.4,3.2,10.3,7.8,11.9,14.5c2.2,5.1,2.8,11.5,1.6,18.4L1594.7,241.2z M1367,246c-44.6,0-76.8-37.6-71.8-84c5-46.4,45.1-84,90.3-84
	c44,0,76.2,37.6,71.2,84C1451.8,208.4,1411.7,246,1367,246z M1381.8,107.5c-31,0-54.8,22.3-58.3,54.5c-3.4,32.2,15.6,54.5,46.6,54.5
	c31,0,54.8-22.3,58.3-54.5C1431.9,129.8,1412.8,107.5,1381.8,107.5z M1278.1,135.1c-0.7,4.6-2,7.6-5.2,10.9c-2.8,4.4-5.8,6-10,7.3
	c-1,0.5-2.5,1-4.6,1.3c4.2,0.9,7.4,2.7,9.7,5.4c3.1,3.8,4.2,8.5,3.2,14l-5.2,29.6c-1.2,6.9-4,13.3-8.4,19.8
	c-4.4,5.3-9.8,10-16.2,13.3c-6.4,3.4-13.1,5.1-20,5.1H1108l30.8-173.3h113.1c6.8,0,12.8,1.7,18.1,5.1c5.3,3.4,9.1,8,11.4,13.9
	c2.3,5.9,2.9,12.3,1.7,19.2L1278.1,135.1z M1148.3,217.9h70.2c2.4,0,4.6-0.9,6.6-2.6c1.9-1.7,3.1-3.8,3.6-6.2l6-34
	c0.4-2.4,0-4.5-1.4-6.2c-1.3-1.7-3.2-2.6-5.7-2.6h-70L1148.3,217.9z M1246.3,94.7c-1.4-1.6-3.2-2.5-5.7-2.5h-70.2l-8.9,50.3h70.2
	c3.3,0,4.6-0.8,6.5-2.5c1.9-1.6,3.1-3.8,3.6-6.4l5.8-32.7C1248.1,99.3,1247.7,96.4,1246.3,94.7z"/>
<path class="st9" d="M1330.1,393.8v60h-204l-4.8-60H1330.1z M1481.3,506.6v33c0,132.6-19.2,240-74.4,353.4h-78
	c61.8-124.2,81.6-229.2,81.6-353.4v-33h-49.2l-5.4-62.4h54.6V353h70.8v91.2h79.8c32.4,0,46.8,15,48,48c4.2,109.8,5.4,223.2,0,333
	c-1.8,40.2-22.2,61.8-67.2,64.2c-24.6,1.2-52.2-0.6-76.2-4.8l-16.2-63c20.4,4.2,44.4,6.6,64.8,4.8c16.2-1.2,23.4-8.4,24.6-23.4
	c6-83.4,5.4-195.6,0-287.4c-0.6-6-3-9-9-9H1481.3z M1238.9,592.4c-7.8,65.4-31.8,132.6-67.2,187.2h107.4l-29.4-116.4h70.8
	l31.8,130.8c6,24.6-10.2,48-37.2,48h-219l-4.8-62.4h11.4c32.4-61.2,52.8-123,61.2-187.2h-67.8l-4.8-60h264v60H1238.9z M2157.5,846.8
	L2120.3,701h73.8l37.2,145.8H2157.5z M1964.3,784.4l-25.2-99h69.6l25.2,99H1964.3z M1905.5,789.8c0,18.6,8.4,28.2,24.6,31.2
	c30.6,5.4,61.2,5.4,93.6,0c15.6-2.4,25.8-13.8,25.8-31.2v-39l70.2,9.6V812c0.6,36.6-28.8,66.6-70.8,71.4c-51,6-92.4,6-146.4,0
	c-41.4-4.8-70.2-34.8-70.2-71.4V687.2h73.2V789.8z M1737.5,701h73.8l-31.2,145.8h-73.8L1737.5,701z M2027.3,488.6
	c30.6,47.4,97.2,98.4,210.6,117.6l-18.6,69.6c-136.2-25.8-212.4-90.6-250.8-153c-11.4,18-27,36-45.6,52.2h40.8l51.6,81h-77.4
	l-39.6-61.8c-46.8,33-109.8,60-187.8,76.2l-18.6-67.8c128.4-30.6,190.2-73.8,216-114h-190.8l-6-61.2h212.4v-73.2h72v73.2h226.2v61.2
	H2027.3z M2632.1,515.6c39.6,90.6,111.6,173.4,211.8,234.6l-27,78c-102.6-69-171-140.4-214.2-225v132.6h91.2v60h-91.2V893h-74.4
	v-97.2h-87l-6-60h93V603.2c-43.2,84.6-111.6,156-214.2,225l-27-78c100.2-61.2,172.2-144,211.8-234.6h-174.6l-6-62.4h210V353h74.4
	v100.2h207v62.4H2632.1z M3329.9,515.6c22.2,81.6,60.6,153.6,120.6,216l-21,81.6c-76.2-76.2-126-156.6-152.4-253.8v176.4h80.4v60
	h-80.4V893h-73.2v-97.2h-75.6l-6-60h81.6V563.6c-26.4,95.4-76.2,174.6-151.2,249.6l-21.6-81.6c60-62.4,98.4-134.4,121.2-216h-84.6
	l-6-62.4h142.2V353h73.2v100.2h142.2v62.4H3329.9z M2954.9,560.6h27.6c27,0,42,15,42,42V893h-73.2V604.4h-42.6l-22.2-64.2
	c61.2-51.6,99.6-113.4,117-187.2h77.4C3063.5,444.2,3014.9,515,2954.9,560.6z M3966.5,601.4c4.2,6.6,6.6,15,6.6,23.4v44.4
	c0,25.2-19.8,45.6-45.6,45.6h-310.2v26.4h331.8c25.8,0,45.6,20.4,45.6,45.6v48c0,25.2-20.4,46.2-46.2,46.2h-355.2
	c-25.8,0-48-22.8-48-48V627.2c0-9,3-18,7.8-25.8h-45v-54.6c0-28.8,19.2-48,48-48h173.4v-36h45.6l-9-25.8h-58.2v45h-69.6v-45h-30
	c-24,29.4-56.4,52.2-97.8,66.6l-22.2-64.2c49.2-19.2,69.6-41.4,85.2-86.4h75.6c-2.4,9.6-5.4,18.6-9,27.6h131.4v42.6
	c31.2-21,49.2-43.8,53.4-70.2h75.6c-1.8,9.6-4.2,19.2-7.2,27.6h141V437h-68.4v47.4h-69.6V437h-34.8c-15.6,17.4-34.8,31.8-60,45.6
	v16.2h174.6c28.8,0,48,19.2,48,48v54.6H3966.5z M3952.1,586.4v-22.2c0-5.4-3.6-9-9-9h-354c-5.4,0-9,3.6-9,9V581
	c4.2-1.2,8.4-1.8,13.2-1.8h334.2C3936.5,579.2,3944.9,581.6,3952.1,586.4z M3617.3,795.2V818c0,5.4,3.6,9,9,9h287.4c5.4,0,9-3.6,9-9
	v-13.8c0-5.4-3.6-9-9-9H3617.3z M3617.3,660.8h274.8c5.4,0,9-3.6,9-9v-9.6c0-5.4-3.6-9-9-9h-265.8c-5.4,0-9,3.6-9,9V660.8z
	 M4544.9,542h-54v57h45c5.4,0,9-3.6,9-9V542z M4544.9,484.4V440c0-5.4-3.6-9-9-9h-45v53.4H4544.9z M4490.9,813.8h145.8v60h-356.4
	l-4.8-50.4l-176.4,35.4l-10.8-62.4l66.6-13.2V623h-50.4l-6-60h56.4V443h-54l-6-60h186v60h-57.6v120h49.8v60h-49.8v147l60.6-12v55.8
	h137.4V764h-121.2l-6-60h127.2v-45h-74.4c-31.2,0-48-16.8-48-48V419c0-31.2,16.8-48,48-48h218.4c31.2,0,48,16.8,48,48v192
	c0,31.2-16.8,48-48,48h-74.4v45h126.6v60h-126.6V813.8z M4421.3,599v-57h-54v48c0,5.4,3.6,9,9,9H4421.3z M4421.3,484.4V431h-45
	c-5.4,0-9,3.6-9,9v44.4H4421.3z M5149.7,883.4l-53.4-147.6h75l55.8,147.6H5149.7z M4783.1,883.4h-76.8l56.4-147.6h74.4L4783.1,883.4
	z M5014.1,706.4v116.4c0,42.6-24,64.2-65.4,67.2c-31.2,2.4-58.2,0.6-87-4.2l-18-61.8c27,4.8,54.6,6.6,78,4.8
	c11.4-1.2,16.8-7.8,16.8-18.6V706.4h-215.4l-12-60h9.6c69-15.6,127.2-36,176.4-59.4h-150l-9.6-60h6.6c48-13.8,108-54,142.2-84.6
	h-171l-4.8-62.4h194.4c114.6,0,217.8,0.6,316.8-14.4V428c-87.6,12.6-167.4,14.4-250.8,14.4c-22.2,28.2-62.4,61.2-102,84.6h127.8
	c25.2-18.6,46.8-39,65.4-59.4h90c-49.2,75-136.2,138.6-240,178.8h213l-27-82.8h78l28.8,88.2c11.4,33-1.8,54.6-29.4,54.6H5014.1z
	 M5740.1,640.4v168c0,6.6,3.6,10.2,10.8,11.4c6,1.2,12,1.2,18,0c7.2-1.2,10.8-4.8,10.8-11.4v-64.2l60.6,10.2v74.4
	c0,26.4-20.4,47.4-47.4,51c-24,3-52.8,3-76.2,0c-27-3.6-47.4-24.6-47.4-51V640.4h-40.8v43.2c0,114.6-47.4,168.6-136.8,209.4
	l-16.2-57l-176.4,31.2l-9.6-65.4l202.8-35.4v42c47.4-31.2,66-69.6,66-127.2v-40.8h-52.2l-5.4-60h13.2c36.6-41.4,51-68.4,60-112.2
	h-67.8c-12,58.8-51.6,142.2-99.6,193.8l84-9v64.8l-180,18l-7.8-62.4l17.4-1.8c25.2-25.2,48-53.4,67.2-85.2l-85.2,4.2l-8.4-62.4
	l12.6-0.6c41.4-55.8,58.8-109.2,75.6-174.6h67.2c-14.4,64.8-34.2,122.4-69.6,172.2l40.2-1.8c9.6-22.2,17.4-45,23.4-69.6h61.8
	l-4.8-45.6h124.2v-56.4h73.2v56.4h128.4v60h-177.6c-9.6,48.6-28.8,82.2-59.4,112.2h139.2l-40.2-87.6h79.2l40.8,88.2
	c15.6,34.2,4.2,59.4-36,59.4H5740.1z"/>
</svg>
