<svg width="540" height="83" viewBox="0 0 540 83" fill="none" xmlns="http://www.w3.org/2000/svg">
<g clip-path="url(#clip0_5437_2)">
<path fill-rule="evenodd" clip-rule="evenodd" d="M80.898 45.756C79.3 66.233 61.779 82.266 40.807 82.266C18.568 82.266 0.540039 64.238 0.540039 41.999C0.540039 19.761 18.568 1.73199 40.807 1.73199C44.734 1.73199 48.529 2.29699 52.118 3.34599L52.61 3.51899C54.992 4.25999 57.165 6.90699 57.165 10.69C57.165 13.804 54.137 16.833 50.401 16.833C49.478 16.833 48.598 16.646 47.796 16.311L47.734 16.498C45.526 15.899 43.205 15.574 40.807 15.574C26.212 15.574 14.382 27.405 14.382 41.999C14.382 56.594 26.212 68.425 40.807 68.425C54.737 68.425 66.142 57.643 67.151 43.97L67.313 43.991C67.796 40.73 70.599 38.224 73.995 38.224C77.731 38.224 80.759 41.252 80.759 44.988C80.759 45.24 80.743 45.487 80.716 45.732L80.898 45.756ZM69.277 30.45C67.117 30.45 65.155 29.217 63.674 27.869L57.513 33.491C58.86 34.409 58.423 35.489 58.423 36.651C58.423 39.952 55.747 42.629 52.446 42.629C49.145 42.629 46.469 39.952 46.469 36.651C46.469 36.277 46.508 35.912 46.574 35.557L35.63 32.268C34.799 33.686 33.367 34.71 31.684 34.994V46.56C33.908 47.279 35.524 49.345 35.572 51.797L43.575 53.571C44.308 52.297 45.68 51.437 47.256 51.437C49.601 51.437 51.503 53.338 51.503 55.684C51.503 58.29 49.601 59.931 47.256 59.931C44.916 59.931 43.19 58.39 43.1 55.701L35.183 53.966C34.361 56.53 32.332 57.532 29.953 57.532C26.848 57.532 24.33 55.14 24.33 51.909C24.33 48.963 26.597 46.55 29.482 46.309V34.933C26.961 34.36 25.77 32.11 25.77 29.416C25.77 26.289 27.613 23.753 30.74 23.753C33.867 23.753 36.402 26.289 36.402 29.416C36.402 29.677 36.379 29.932 36.345 30.183L47.375 33.499C48.43 31.805 50.304 30.674 52.446 30.674C53.789 30.674 55.24 31.123 56.22 31.87L62.252 26.186C61.425 24.892 60.94 23.358 60.94 21.709C60.94 17.105 64.672 13.372 69.277 13.372C73.881 13.372 77.613 17.105 77.613 21.709C77.613 26.313 73.881 30.45 69.277 30.45Z" fill="#0066FF"/>
<path fill-rule="evenodd" clip-rule="evenodd" d="M252.287 15.89L249.535 15.905L252.286 15.92L259.266 24.171H254.415L247.456 15.916L247.414 15.917L247.434 15.893L254.426 7.62199H259.3L252.287 15.89ZM247.291 15.917H247.414H247.413H247.291ZM242.384 0.345985H246.74V19.965V24.139H242.384V0.345985ZM233.177 14.27C233.177 11.706 232.446 10.782 230.77 10.782C229.369 10.782 228.485 11.438 227.206 12.66V24.139H222.758V7.44199H226.414L226.718 9.64899H226.84C228.333 8.21799 230.69 7.24999 232.385 7.24999C236.71 7.24999 237.655 9.52899 237.655 13.734V24.139H233.177V14.27ZM215.754 4.75899C214.201 4.75899 213.74 3.74499 213.74 2.37399C213.74 0.941985 214.201 0.109985 215.754 0.109985C217.278 0.109985 218.405 0.941985 218.405 2.37399C218.405 3.74499 217.278 4.75899 215.754 4.75899ZM196.294 2.74999H200.802V20.442H209.941V24.139H196.294V2.74999ZM183.605 24.214C178.928 24.214 175.137 20.463 175.137 15.837C175.137 11.21 178.928 7.45999 183.605 7.45999C188.282 7.45999 192.73 11.21 192.73 15.837C192.73 20.463 188.282 24.214 183.605 24.214ZM183.605 11.14C180.913 11.14 178.73 13.173 178.73 15.837C178.73 18.501 180.913 20.66 183.605 20.66C186.298 20.66 188.481 18.501 188.481 15.837C188.481 13.173 186.298 11.14 183.605 11.14ZM171.46 21.98C171.595 21.98 172.265 20.919 172.722 20.74L173.453 23.931C172.539 24.229 171.351 24.557 169.858 24.557C165.807 24.557 164.253 22.52 164.253 18.295V10.901H161.847V7.65099L164.466 7.44199L164.984 2.96999H168.731V7.44199H172.935V10.901H168.731V18.295C168.731 20.204 169.523 21.98 171.46 21.98ZM154.51 14.27C154.51 11.706 153.779 10.782 152.104 10.782C150.703 10.782 149.819 11.438 148.54 12.66V24.139H144.92V7.44199H147.748L148.52 9.64899H148.174C149.667 8.21799 151.403 7.24999 153.718 7.24999C157.404 7.24999 158.988 9.52899 158.988 13.734V24.139H154.51V14.27ZM129.973 24.214C123.737 24.214 118.682 19.213 118.682 13.45C118.682 6.87599 123.737 1.87499 129.973 1.87499C136.209 1.87499 141.264 6.87599 141.264 13.45C141.264 19.213 136.209 24.214 129.973 24.214ZM129.973 5.79199C125.641 5.79199 122.641 8.75899 122.641 13.45C122.641 17.331 125.641 20.297 129.973 20.297C134.306 20.297 137.305 17.331 137.305 13.45C137.305 8.75899 134.306 5.79199 129.973 5.79199ZM116.79 17.639C116.79 22.82 112.301 24.139 107.336 24.139H99.2939V2.74999H106.757C111.387 2.74999 114.921 3.38699 114.921 7.50199C114.921 9.52899 113.764 11.617 111.844 12.273V12.422C114.281 12.988 116.79 14.658 116.79 17.639ZM106.483 5.44499H103.802V11.5H106.422C109.286 11.5 110.534 9.91699 110.534 8.15799C110.534 6.21999 109.194 5.44499 106.483 5.44499ZM106.94 14.33H103.802V20.74H106.94C110.17 20.74 111.692 19.667 111.692 17.371C111.692 15.224 110.47 14.33 106.94 14.33ZM217.948 24.139H213.5V7.44199H217.948V24.139Z" fill="#0066FF"/>
<path d="M127.505 40.3196H149.342V46.7096H127.505V40.3196ZM145.897 40.3196H152.398C152.398 40.3196 152.398 40.5048 152.398 40.8752C152.398 41.2457 152.38 41.6717 152.343 42.1532C152.343 42.6348 152.343 43.0238 152.343 43.3201C152.232 48.9508 152.084 53.7479 151.898 57.7116C151.75 61.6383 151.565 64.8796 151.343 67.4356C151.12 69.9916 150.843 72.0105 150.509 73.4922C150.176 74.937 149.787 75.9742 149.342 76.6039C148.676 77.5671 147.99 78.2338 147.286 78.6043C146.583 79.0118 145.731 79.3081 144.73 79.4933C143.841 79.6415 142.73 79.7156 141.396 79.7156C140.063 79.7526 138.674 79.7341 137.229 79.66C137.192 78.6969 136.988 77.6041 136.618 76.3817C136.247 75.1592 135.784 74.0849 135.229 73.1589C136.562 73.27 137.785 73.3441 138.896 73.3811C140.007 73.3811 140.859 73.3811 141.452 73.3811C141.934 73.3811 142.323 73.3255 142.619 73.2144C142.915 73.0662 143.212 72.8255 143.508 72.4921C143.841 72.0475 144.119 71.1955 144.341 69.936C144.601 68.6395 144.823 66.8059 145.008 64.4351C145.193 62.0272 145.342 58.9711 145.453 55.2667C145.601 51.5253 145.749 47.006 145.897 41.7087V40.3196ZM133.784 29.2065H140.396C140.396 33.5406 140.341 37.745 140.23 41.8199C140.155 45.8576 139.933 49.7287 139.563 53.4331C139.192 57.1374 138.6 60.6195 137.785 63.8794C136.97 67.1392 135.858 70.1583 134.451 72.9366C133.08 75.7149 131.284 78.1968 129.061 80.3824C128.728 79.7897 128.264 79.1599 127.672 78.4932C127.116 77.8634 126.523 77.2522 125.894 76.6595C125.264 76.0668 124.671 75.6037 124.116 75.2703C126.116 73.3441 127.727 71.1585 128.95 68.7136C130.209 66.2687 131.154 63.583 131.784 60.6566C132.45 57.7301 132.913 54.5999 133.173 51.266C133.469 47.9321 133.636 44.4314 133.673 40.7641C133.747 37.0597 133.784 33.2072 133.784 29.2065ZM104.001 32.5404H125.838V38.3748H104.001V32.5404ZM102.167 45.4316H126.838V51.4883H102.167V45.4316ZM118.114 56.4892L123.504 55.0445C124.171 56.5633 124.838 58.2302 125.505 60.0454C126.209 61.8235 126.857 63.5645 127.449 65.2685C128.042 66.9725 128.487 68.4543 128.783 69.7138L123.004 71.5475C122.745 70.288 122.356 68.7877 121.837 67.0466C121.319 65.3056 120.726 63.509 120.059 61.6568C119.43 59.8046 118.781 58.0821 118.114 56.4892ZM104.556 74.3813L103.89 68.7692L106.724 66.6577L124.727 62.4347C124.764 63.2867 124.875 64.2684 125.06 65.3797C125.282 66.491 125.486 67.38 125.671 68.0468C122.3 68.9359 119.467 69.6953 117.17 70.325C114.873 70.9177 112.965 71.4363 111.447 71.8808C109.965 72.2883 108.779 72.6402 107.89 72.9366C107.001 73.2329 106.298 73.4922 105.779 73.7145C105.297 73.8997 104.89 74.122 104.556 74.3813ZM104.501 74.3257C104.427 73.9182 104.26 73.3441 104.001 72.6032C103.779 71.8623 103.519 71.1214 103.223 70.3806C102.927 69.6027 102.649 68.9359 102.389 68.3802C102.945 68.195 103.427 67.7875 103.834 67.1578C104.279 66.528 104.723 65.7131 105.168 64.7129C105.39 64.1943 105.686 63.3793 106.057 62.268C106.464 61.1196 106.89 59.7861 107.335 58.2673C107.779 56.7114 108.224 55.063 108.668 53.3219C109.113 51.5438 109.465 49.7843 109.724 48.0432L116.281 49.8769C115.762 52.3218 115.095 54.8037 114.28 57.3227C113.465 59.8046 112.576 62.2124 111.613 64.5462C110.687 66.8429 109.761 68.9173 108.835 70.7695V70.9362C108.835 70.9362 108.613 71.0474 108.168 71.2696C107.724 71.4919 107.224 71.7882 106.668 72.1587C106.112 72.5291 105.612 72.9181 105.168 73.3255C104.723 73.696 104.501 74.0294 104.501 74.3257ZM157.677 35.3742H208.186V41.4865H157.677V35.3742ZM179.626 27.6506H186.516C186.293 30.54 185.923 33.3368 185.404 36.041C184.923 38.7082 184.163 41.2827 183.126 43.7646C182.126 46.2466 180.7 48.5618 178.848 50.7103C177.033 52.8218 174.662 54.7481 171.735 56.4892C168.809 58.1932 165.16 59.6749 160.789 60.9344C160.493 60.0824 159.974 59.1193 159.233 58.045C158.492 56.9337 157.77 56.0261 157.066 55.3223C161.067 54.2851 164.382 53.0626 167.012 51.655C169.679 50.2103 171.791 48.5989 173.347 46.8208C174.94 45.0427 176.143 43.1349 176.958 41.0975C177.773 39.0231 178.366 36.856 178.737 34.5963C179.107 32.3367 179.403 30.0214 179.626 27.6506ZM187.683 35.5965C189.313 40.3381 191.887 44.3018 195.406 47.4875C198.962 50.6363 203.611 52.8404 209.353 54.0999C208.872 54.5444 208.334 55.1371 207.742 55.8779C207.186 56.6188 206.668 57.3782 206.186 58.1561C205.704 58.897 205.278 59.5823 204.908 60.2121C200.796 59.0267 197.24 57.3782 194.239 55.2667C191.239 53.1552 188.72 50.5807 186.682 47.5431C184.645 44.5055 182.922 40.9864 181.515 36.9856L187.683 35.5965ZM175.903 53.6553L181.682 50.2103C182.756 50.7659 183.886 51.4142 185.071 52.1551C186.256 52.8959 187.386 53.6368 188.461 54.3777C189.572 55.1186 190.498 55.8224 191.239 56.4892L185.071 60.2676C184.441 59.6008 183.608 58.8785 182.571 58.1006C181.533 57.2856 180.422 56.5077 179.237 55.7668C178.088 54.9889 176.977 54.2851 175.903 53.6553ZM169.679 61.879H176.292V71.3252C176.292 72.2142 176.514 72.7699 176.958 72.9922C177.403 73.2144 178.44 73.3255 180.07 73.3255C180.366 73.3255 180.811 73.3255 181.404 73.3255C182.033 73.3255 182.737 73.3255 183.515 73.3255C184.293 73.3255 185.09 73.3255 185.905 73.3255C186.719 73.3255 187.46 73.3255 188.127 73.3255C188.794 73.3255 189.313 73.3255 189.683 73.3255C190.609 73.3255 191.294 73.1774 191.739 72.881C192.183 72.5847 192.517 71.9735 192.739 71.0474C192.961 70.1213 193.11 68.7321 193.184 66.8799C193.665 67.2133 194.258 67.5467 194.962 67.8801C195.666 68.2135 196.388 68.5099 197.129 68.7692C197.907 68.9914 198.592 69.1581 199.185 69.2693C198.925 71.9364 198.481 73.9923 197.851 75.437C197.258 76.8817 196.351 77.8819 195.128 78.4376C193.943 78.9932 192.295 79.2711 190.183 79.2711C189.85 79.2711 189.313 79.2711 188.572 79.2711C187.868 79.2711 187.053 79.2711 186.127 79.2711C185.238 79.2711 184.33 79.2711 183.404 79.2711C182.478 79.2711 181.663 79.2711 180.959 79.2711C180.255 79.2711 179.737 79.2711 179.403 79.2711C176.847 79.2711 174.847 79.0303 173.402 78.5487C171.995 78.0671 171.013 77.2522 170.457 76.1038C169.939 74.9555 169.679 73.3811 169.679 71.3808V61.879ZM177.514 61.2122L182.682 58.1561C183.645 59.0452 184.645 60.0454 185.682 61.1567C186.719 62.231 187.701 63.3052 188.627 64.3795C189.553 65.4538 190.276 66.4354 190.794 67.3245L185.293 70.7695C184.812 69.8805 184.145 68.8803 183.293 67.769C182.441 66.6577 181.496 65.5278 180.459 64.3795C179.459 63.1941 178.477 62.1383 177.514 61.2122ZM196.184 62.7125L202.074 60.8789C202.963 62.3976 203.852 64.0646 204.741 65.8798C205.63 67.6949 206.427 69.473 207.131 71.2141C207.871 72.9551 208.409 74.5109 208.742 75.8816L202.407 78.1042C202.111 76.7336 201.63 75.1777 200.963 73.4367C200.333 71.6586 199.592 69.8434 198.74 67.9913C197.925 66.102 197.073 64.3424 196.184 62.7125ZM162.289 61.4345L168.29 63.4349C167.92 65.0648 167.475 66.8059 166.957 68.658C166.475 70.4732 165.919 72.2328 165.29 73.9368C164.697 75.6408 164.012 77.1596 163.234 78.4932L157.233 75.437C158.011 74.2146 158.714 72.8255 159.344 71.2696C159.974 69.7138 160.548 68.1024 161.067 66.4354C161.585 64.7314 161.993 63.0644 162.289 61.4345ZM213.91 39.0416H263.03V45.8206H213.91V39.0416ZM225.301 64.2128H251.139V70.9918H225.301V64.2128ZM234.858 28.2618H241.915V80.4379H234.858V28.2618ZM232.857 41.4865L238.97 43.4313C237.377 47.432 235.451 51.2475 233.191 54.8778C230.931 58.5081 228.394 61.8049 225.578 64.7684C222.8 67.6949 219.8 70.1954 216.577 72.2698C216.206 71.7141 215.725 71.1029 215.132 70.4361C214.539 69.7323 213.947 69.047 213.354 68.3802C212.798 67.6764 212.243 67.1207 211.687 66.7132C213.984 65.4538 216.188 63.9164 218.299 62.1013C220.411 60.2862 222.374 58.2673 224.189 56.0446C226.041 53.822 227.69 51.4883 229.135 49.0434C230.616 46.5614 231.857 44.0425 232.857 41.4865ZM243.971 41.6532C245.304 44.913 247.045 48.1173 249.194 51.266C251.379 54.3777 253.861 57.2115 256.64 59.7675C259.418 62.3236 262.344 64.4165 265.419 66.0465C264.863 66.491 264.252 67.0652 263.585 67.769C262.955 68.4728 262.344 69.2137 261.752 69.9916C261.159 70.7325 260.659 71.4178 260.251 72.0475C257.028 70.0472 254.009 67.6023 251.194 64.7129C248.416 61.7864 245.915 58.5266 243.693 54.9333C241.47 51.3401 239.544 47.5802 237.914 43.6535L243.971 41.6532ZM278.477 28.4285L284.811 30.3733C283.737 33.485 282.44 36.6337 280.922 39.8195C279.44 42.9682 277.81 45.9687 276.032 48.8211C274.291 51.6364 272.476 54.1184 270.586 56.2669C270.364 55.7113 270.031 55.0074 269.586 54.1554C269.179 53.2664 268.734 52.3773 268.253 51.4883C267.771 50.5992 267.327 49.8769 266.919 49.3212C268.512 47.6172 270.012 45.6539 271.42 43.4313C272.865 41.1716 274.18 38.7637 275.365 36.2077C276.588 33.6517 277.625 31.0586 278.477 28.4285ZM273.976 43.8202L280.31 37.4857V37.5413V80.3268H273.976V43.8202ZM297.647 28.4841H304.148V79.9934H297.647V28.4841ZM283.533 38.1525H319.54V44.487H283.533V38.1525ZM290.312 65.1018H311.649V71.0474H290.312V65.1018ZM306.537 41.7087C307.501 44.8204 308.742 47.9691 310.26 51.1549C311.779 54.3036 313.465 57.2486 315.317 59.9898C317.169 62.694 319.095 64.9907 321.096 66.8799C320.318 67.4356 319.429 68.2135 318.428 69.2137C317.465 70.2139 316.687 71.1585 316.095 72.0475C314.094 69.8249 312.187 67.1578 310.371 64.0461C308.556 60.9344 306.926 57.582 305.482 53.9887C304.037 50.3584 302.796 46.7096 301.759 43.0423L306.537 41.7087ZM295.591 41.1531L300.425 42.4866C299.388 46.3392 298.11 50.1176 296.591 53.822C295.072 57.5264 293.368 60.9529 291.479 64.1017C289.59 67.2504 287.553 69.9546 285.367 72.2142C284.997 71.6956 284.533 71.1214 283.978 70.4917C283.422 69.8249 282.829 69.1952 282.2 68.6025C281.607 68.0098 281.07 67.5282 280.588 67.1578C282.737 65.2685 284.756 62.9348 286.645 60.1565C288.571 57.3412 290.294 54.3036 291.813 51.0437C293.368 47.7469 294.628 44.45 295.591 41.1531ZM338.21 74.0479H365.27V78.9932H338.21V74.0479ZM346.156 39.8751H352.601V46.5985H346.156V39.8751ZM325.652 43.7091H373.994V54.8222H367.437V48.71H331.931V54.8222H325.652V43.7091ZM337.988 51.0437H365.159V63.4904H337.988V58.7674H358.547V55.8224H337.988V51.0437ZM338.265 66.0465H369.382V80.4379H362.77V70.9362H338.265V66.0465ZM334.32 51.0437H340.655V80.4935H334.32V51.0437ZM331.209 32.0959H348.767V37.3746H331.209V32.0959ZM353.713 32.0959H375.272V37.3746H353.713V32.0959ZM331.486 27.7618L337.654 29.4843C336.58 31.9662 335.209 34.3926 333.542 36.7634C331.912 39.0971 330.282 41.079 328.653 42.7089C328.245 42.3385 327.708 41.931 327.041 41.4865C326.374 41.0419 325.708 40.5974 325.041 40.1529C324.374 39.7084 323.763 39.3564 323.207 39.0971C324.911 37.7265 326.504 36.0225 327.986 33.9851C329.468 31.9477 330.634 29.8732 331.486 27.7618ZM354.102 27.7618L360.436 29.3176C359.436 31.7254 358.139 34.0221 356.546 36.2077C354.954 38.3563 353.324 40.1529 351.657 41.5976C351.175 41.2642 350.582 40.9123 349.879 40.5418C349.212 40.1344 348.508 39.7454 347.767 39.375C347.026 38.9675 346.378 38.6526 345.822 38.4304C347.6 37.1709 349.212 35.5965 350.657 33.7073C352.138 31.781 353.287 29.7992 354.102 27.7618ZM333.32 36.2077L338.988 34.6519C339.655 35.615 340.321 36.7078 340.988 37.9303C341.692 39.1157 342.229 40.1344 342.6 40.9864L336.598 42.7089C336.339 41.8569 335.876 40.8197 335.209 39.5972C334.58 38.3377 333.95 37.2079 333.32 36.2077ZM358.102 36.3189L363.992 34.763C364.807 35.6891 365.622 36.7449 366.437 37.9303C367.289 39.1157 367.937 40.1714 368.382 41.0975L362.214 42.82C361.881 41.931 361.307 40.8752 360.492 39.6528C359.677 38.4303 358.88 37.319 358.102 36.3189ZM405.889 46.154V50.877H422.67V46.154H405.889ZM405.889 36.2077V40.8752H422.67V36.2077H405.889ZM399.832 30.5956H429.06V56.5447H399.832V30.5956ZM399.499 61.3234H429.615V67.3245H399.499V61.3234ZM395.609 72.6032H431.504V78.6598H395.609V72.6032ZM379.328 31.4291H397.776V37.5969H379.328V31.4291ZM379.828 47.432H396.832V53.5442H379.828V47.432ZM378.662 68.5469C380.292 68.1024 382.107 67.6023 384.107 67.0466C386.144 66.4539 388.293 65.8057 390.553 65.1018C392.812 64.361 395.035 63.6386 397.22 62.9348L398.387 69.2693C395.276 70.3065 392.127 71.3622 388.941 72.4365C385.755 73.5108 382.829 74.4739 380.162 75.3259L378.662 68.5469ZM385.441 33.874H391.831V67.9913L385.441 69.047V33.874ZM411.612 32.9849H417.224V53.8776H417.835V75.437H411.001V53.8776H411.612V32.9849ZM446.563 65.3241L453.508 67.9357C452.323 69.3433 450.971 70.7881 449.452 72.2698C447.97 73.7145 446.433 75.0666 444.84 76.3261C443.247 77.6226 441.729 78.7339 440.284 79.66C439.839 79.2155 439.247 78.6969 438.506 78.1042C437.802 77.5485 437.061 76.9744 436.283 76.3817C435.505 75.826 434.838 75.3815 434.283 75.0481C435.802 74.2702 437.32 73.3626 438.839 72.3254C440.358 71.2511 441.784 70.1213 443.118 68.9359C444.451 67.7134 445.6 66.5095 446.563 65.3241ZM467.289 68.8247L472.845 65.0463C474.327 65.9724 475.901 67.0466 477.568 68.2691C479.272 69.4545 480.884 70.6584 482.403 71.8808C483.921 73.1033 485.162 74.2331 486.125 75.2703L480.124 79.5489C479.272 78.5117 478.124 77.3633 476.679 76.1038C475.235 74.8443 473.679 73.5849 472.012 72.3254C470.382 71.0288 468.808 69.862 467.289 68.8247ZM439.561 45.8761L444.173 41.5976C445.729 42.4866 447.359 43.5053 449.063 44.6537C450.804 45.8021 452.471 46.9689 454.064 48.1543C455.657 49.3397 456.935 50.451 457.898 51.4883L452.953 56.3225C452.064 55.2853 450.86 54.1554 449.341 52.933C447.822 51.6735 446.192 50.4325 444.451 49.2101C442.747 47.9506 441.117 46.8393 439.561 45.8761ZM468.4 52.8218L473.901 49.3212C475.42 50.5807 477.013 51.9884 478.68 53.5442C480.384 55.1 481.977 56.6559 483.458 58.2117C484.94 59.7305 486.125 61.1382 487.015 62.4347L481.069 66.4354C480.254 65.1759 479.143 63.7497 477.735 62.1569C476.327 60.564 474.809 58.9526 473.179 57.3227C471.549 55.6557 469.956 54.1554 468.4 52.8218ZM456.954 60.3232H464.121V80.4379H456.954V60.3232ZM435.45 57.3227C438.265 57.2856 441.432 57.23 444.951 57.156C448.508 57.0819 452.249 57.0263 456.176 56.9893C460.139 56.9152 464.177 56.8411 468.289 56.767C472.401 56.6559 476.457 56.5447 480.458 56.4336L480.124 62.4903C474.901 62.7125 469.622 62.9163 464.288 63.1015C458.954 63.2867 453.86 63.4534 449.008 63.6016C444.192 63.7497 439.876 63.8794 436.061 63.9905L435.45 57.3227ZM468.622 37.9303L475.123 41.4309C473.271 43.246 471.326 45.0982 469.289 46.9875C467.252 48.8396 465.159 50.6548 463.01 52.4329C460.899 54.211 458.787 55.8965 456.676 57.4894C454.601 59.0452 452.619 60.4343 450.73 61.6568L445.507 58.2673C447.396 56.9707 449.378 55.526 451.453 53.9332C453.564 52.3032 455.638 50.5807 457.676 48.7656C459.75 46.9504 461.714 45.1167 463.566 43.2646C465.455 41.4124 467.141 39.6343 468.622 37.9303ZM454.564 34.0962L461.121 37.319C459.973 38.6526 458.75 40.0047 457.454 41.3753C456.157 42.7459 454.861 44.0425 453.564 45.2649C452.305 46.4503 451.119 47.5061 450.008 48.4322L444.618 45.4316C445.692 44.4685 446.841 43.3572 448.063 42.0977C449.285 40.8011 450.471 39.4491 451.619 38.0414C452.768 36.6337 453.749 35.3187 454.564 34.0962ZM477.735 28.7064L482.458 34.3741C479.384 35.0038 476.068 35.5595 472.512 36.041C468.956 36.4856 465.251 36.8745 461.399 37.2079C457.546 37.5043 453.694 37.7265 449.841 37.8747C446.026 38.0229 442.303 38.1155 438.672 38.1525C438.635 37.3005 438.45 36.3003 438.117 35.152C437.783 33.9666 437.45 32.9849 437.117 32.207C440.71 32.0959 444.359 31.9662 448.063 31.818C451.804 31.6328 455.472 31.392 459.065 31.0957C462.658 30.7993 466.048 30.4659 469.234 30.0955C472.419 29.688 475.253 29.225 477.735 28.7064ZM529.078 44.9871L534.19 42.4311C535.19 43.7276 536.209 45.1353 537.246 46.6541C538.283 48.1358 539.246 49.6176 540.135 51.0993C541.024 52.544 541.71 53.8591 542.191 55.0445L536.579 57.9894C536.172 56.8411 535.56 55.526 534.745 54.0443C533.93 52.5255 533.023 50.9882 532.023 49.4323C531.022 47.8395 530.041 46.3577 529.078 44.9871ZM510.519 35.4854H541.58V41.4309H510.519V35.4854ZM526.299 56.2669H532.856V71.9364C532.856 72.7884 532.912 73.3255 533.023 73.5478C533.134 73.7701 533.375 73.8812 533.745 73.8812C533.856 73.8812 534.042 73.8812 534.301 73.8812C534.56 73.8812 534.819 73.8812 535.079 73.8812C535.338 73.8812 535.523 73.8812 535.634 73.8812C535.968 73.8812 536.209 73.696 536.357 73.3255C536.505 72.9181 536.616 72.1216 536.69 70.9362C536.801 69.7138 536.875 67.9172 536.912 65.5464C537.542 66.1391 538.413 66.6762 539.524 67.1578C540.672 67.6023 541.673 67.9542 542.525 68.2135C542.376 71.14 542.08 73.4367 541.635 75.1036C541.191 76.7336 540.543 77.8634 539.691 78.4932C538.876 79.1599 537.746 79.4933 536.301 79.4933C536.079 79.4933 535.801 79.4933 535.468 79.4933C535.134 79.4933 534.764 79.4933 534.356 79.4933C533.986 79.4933 533.634 79.4933 533.301 79.4933C532.967 79.4933 532.689 79.4933 532.467 79.4933C530.8 79.4933 529.522 79.2525 528.633 78.771C527.744 78.2894 527.133 77.493 526.799 76.3817C526.466 75.3074 526.299 73.8442 526.299 71.992V56.2669ZM515.797 56.3225H522.354C522.243 59.2489 522.021 61.9531 521.687 64.4351C521.354 66.917 520.78 69.1767 519.965 71.2141C519.15 73.2144 517.965 75.011 516.409 76.6039C514.89 78.1968 512.852 79.5674 510.296 80.7158C510.074 80.1601 509.722 79.5304 509.241 78.8265C508.796 78.1227 508.296 77.4374 507.74 76.7706C507.222 76.1409 506.722 75.6223 506.24 75.2148C508.352 74.3257 510.019 73.2885 511.241 72.1031C512.501 70.8807 513.445 69.51 514.075 67.9913C514.705 66.4354 515.131 64.6944 515.353 62.7681C515.575 60.8048 515.723 58.6562 515.797 56.3225ZM511.13 57.2115L510.908 52.3773L514.131 50.377L535.301 48.5433C535.338 49.3583 535.412 50.3029 535.523 51.3771C535.671 52.4144 535.82 53.2478 535.968 53.8776C531.93 54.2851 528.541 54.6555 525.799 54.9889C523.058 55.2852 520.817 55.5446 519.076 55.7668C517.335 55.952 515.946 56.1373 514.908 56.3225C513.871 56.4706 513.075 56.6188 512.519 56.767C511.963 56.8781 511.5 57.0263 511.13 57.2115ZM520.687 29.5399L527.022 27.984C527.503 28.9842 528.003 30.114 528.522 31.3735C529.078 32.596 529.504 33.6332 529.8 34.4852L523.132 36.3744C522.91 35.4483 522.558 34.3555 522.076 33.0961C521.632 31.7995 521.169 30.6141 520.687 29.5399ZM511.13 57.2115C511.019 56.6559 510.834 55.9706 510.574 55.1556C510.352 54.3406 510.111 53.5257 509.852 52.7107C509.593 51.8957 509.352 51.266 509.13 50.8215C509.759 50.6733 510.445 50.4696 511.186 50.2103C511.926 49.9139 512.612 49.4879 513.241 48.9322C513.612 48.5618 514.168 47.9135 514.908 46.9875C515.686 46.0614 516.52 45.0241 517.409 43.8758C518.298 42.6904 519.15 41.542 519.965 40.4307C520.817 39.3194 521.502 38.3933 522.021 37.6524H529.8C529.022 38.7637 528.115 40.0232 527.077 41.4309C526.077 42.8015 525.021 44.2277 523.91 45.7094C522.836 47.1541 521.78 48.5248 520.743 49.8213C519.706 51.0808 518.779 52.1736 517.965 53.0997C517.965 53.0997 517.724 53.1923 517.242 53.3775C516.798 53.5257 516.242 53.7479 515.575 54.0443C514.908 54.3406 514.223 54.674 513.519 55.0445C512.852 55.3779 512.278 55.7483 511.797 56.1558C511.352 56.5262 511.13 56.8781 511.13 57.2115ZM492.182 66.0465C492.108 65.6019 491.941 65.0092 491.682 64.2684C491.423 63.4904 491.145 62.694 490.849 61.879C490.589 61.0641 490.311 60.3973 490.015 59.8787C490.756 59.6935 491.46 59.3045 492.127 58.7118C492.793 58.1191 493.571 57.3041 494.46 56.2669C494.905 55.7853 495.553 54.9889 496.405 53.8776C497.257 52.7663 498.183 51.4327 499.183 49.8769C500.221 48.321 501.276 46.6355 502.351 44.8204C503.425 43.0053 504.388 41.1716 505.24 39.3194L511.074 42.9312C509.111 46.4874 506.851 49.988 504.295 53.4331C501.739 56.8781 499.146 59.9342 496.516 62.6014V62.7681C496.516 62.7681 496.294 62.8792 495.849 63.1015C495.442 63.3237 494.942 63.6201 494.349 63.9905C493.793 64.3239 493.293 64.6758 492.849 65.0463C492.404 65.4167 492.182 65.7501 492.182 66.0465ZM492.182 66.0465L491.682 60.4899L494.46 58.434L509.241 55.4334C509.167 56.3595 509.13 57.3967 509.13 58.5451C509.13 59.6935 509.185 60.6195 509.296 61.3234C505.962 62.0643 503.258 62.694 501.184 63.2126C499.109 63.7312 497.479 64.1572 496.294 64.4906C495.109 64.824 494.219 65.1018 493.627 65.3241C493.034 65.5464 492.553 65.7871 492.182 66.0465ZM491.849 52.4884C491.701 52.0069 491.497 51.3771 491.237 50.5992C490.978 49.7843 490.682 48.9322 490.348 48.0432C490.052 47.1541 489.756 46.4133 489.459 45.8206C490.052 45.6354 490.608 45.2649 491.126 44.7093C491.645 44.1536 492.219 43.4313 492.849 42.5422C493.145 42.1347 493.553 41.4309 494.071 40.4307C494.627 39.4305 495.22 38.2451 495.849 36.8745C496.516 35.5039 497.164 34.0407 497.794 32.4848C498.424 30.8919 498.98 29.2991 499.461 27.7062L506.24 30.8179C505.388 32.9294 504.369 35.0779 503.184 37.2635C502.036 39.412 500.813 41.4865 499.517 43.4868C498.22 45.4501 496.905 47.2468 495.572 48.8767V49.0434C495.572 49.0434 495.386 49.173 495.016 49.4323C494.646 49.6546 494.201 49.951 493.682 50.3214C493.201 50.6918 492.775 51.0808 492.404 51.4883C492.034 51.8587 491.849 52.1921 491.849 52.4884ZM491.849 52.4884L491.626 47.5987L494.46 45.765L503.795 44.9871C503.61 45.8761 503.443 46.8578 503.295 47.9321C503.184 49.0063 503.11 49.8954 503.073 50.5992C500.999 50.8215 499.294 51.0252 497.961 51.2104C496.627 51.3586 495.553 51.5068 494.738 51.655C493.96 51.8031 493.349 51.9513 492.904 52.0995C492.46 52.2106 492.108 52.3403 491.849 52.4884ZM490.348 71.6586C491.941 71.177 493.756 70.6028 495.794 69.936C497.831 69.2322 499.998 68.4728 502.295 67.6579C504.592 66.8429 506.888 66.0279 509.185 65.213L510.408 70.8807C507.259 72.1772 504.055 73.4737 500.795 74.7703C497.572 76.0297 494.608 77.1966 491.904 78.2709L490.348 71.6586Z" fill="black"/>
</g>
<defs>
<clipPath id="clip0_5437_2">
<rect width="540" height="83" fill="white"/>
</clipPath>
</defs>
</svg>
